<svg width="362" height="576" viewBox="0 0 362 576" fill="none" xmlns="http://www.w3.org/2000/svg">
<g filter="url(#filter0_f_3307_78)">
<path fill-rule="evenodd" clip-rule="evenodd" d="M313 147.182C320.675 147.182 326.909 153.416 326.909 161.091H333.091C333.091 150.002 324.089 141 313 141V147.182Z" fill="#FF914D"/>
<path d="M167.972 203.594C169.978 202.448 172.471 203.903 172.46 206.213L172.365 226.806C172.354 229.115 169.847 230.547 167.853 229.383L150.066 219.004C148.072 217.84 148.085 214.953 150.09 213.808L167.972 203.594Z" fill="#5293FD"/>
<path d="M139.43 6L132.352 13.0782L125.274 6L120 11.2742L127.066 18.3523L120 25.4305L125.274 30.7046L132.352 23.6265L139.43 30.7046L144.705 25.4305L137.626 18.3523L144.705 11.2742L139.43 6Z" fill="#F5B3A5"/>
<path d="M216.303 490L210 496.303L203.697 490L199 494.697L205.292 501L199 507.303L203.697 512L210 505.697L216.303 512L221 507.303L214.697 501L221 494.697L216.303 490Z" fill="#07BFA5"/>
<path fill-rule="evenodd" clip-rule="evenodd" d="M48.011 526.021C51.1412 523.829 55.1682 523.336 59.1777 524.592L59.1888 524.595L59.1888 524.595C61.4231 525.303 63.1774 524.917 64.3407 524.102C65.5054 523.287 66.4757 521.762 66.5833 519.406L73.4386 519.719C73.247 523.916 71.4072 527.531 68.277 529.723C65.147 531.915 61.1241 532.405 57.1226 531.139C54.8736 530.436 53.1112 530.827 51.9473 531.642C50.784 532.457 49.8213 533.973 49.7224 536.315L49.7219 536.326L49.7219 536.326C49.5304 540.523 47.6905 544.139 44.5603 546.331C41.4287 548.524 37.4033 549.013 33.3998 547.745L35.4722 541.203C37.7065 541.911 39.4607 541.525 40.624 540.71C41.7879 539.895 42.7578 538.372 42.8664 536.018C43.0453 531.825 44.8811 528.213 48.011 526.021Z" fill="#FFBD59"/>
<path fill-rule="evenodd" clip-rule="evenodd" d="M40.3385 119.804C38.0466 117.803 34.9001 117.07 31.6188 117.723L31.6097 117.725L31.6097 117.725C29.7804 118.095 28.4244 117.64 27.5726 116.896C26.7198 116.151 26.0812 114.862 26.1965 112.987L20.7422 112.652C20.5368 115.991 21.686 119.01 23.9778 121.012C26.2695 123.014 29.413 123.743 32.6889 123.082C34.5294 122.717 35.8915 123.176 36.7437 123.92C37.5955 124.664 38.2287 125.947 38.1078 127.809L38.1072 127.818L38.1072 127.818C37.9018 131.158 39.0509 134.177 41.3428 136.179C43.6357 138.181 46.7812 138.911 50.0589 138.248L48.9746 132.892C47.1454 133.262 45.7893 132.807 44.9376 132.063C44.0854 131.319 43.447 130.031 43.5612 128.158C43.7763 124.823 42.6301 121.806 40.3385 119.804Z" fill="#35E6C5"/>
<path d="M36.2685 393.185C36.4752 396.387 35.6592 399.572 33.9382 402.28C32.2173 404.988 29.6803 407.08 26.6936 408.252C23.7068 409.425 20.4247 409.619 17.3208 408.805C14.217 407.991 11.4519 406.213 9.42465 403.725C7.3974 401.238 6.21283 398.171 6.04187 394.967C5.87091 391.763 6.72241 388.587 8.47349 385.898C10.2246 383.209 12.7847 381.146 15.7843 380.007C18.784 378.868 22.0681 378.711 25.1627 379.559L23.3349 386.227C21.6535 385.766 19.869 385.851 18.2391 386.47C16.6092 387.089 15.2182 388.21 14.2667 389.671C13.3153 391.132 12.8526 392.857 12.9455 394.598C13.0384 396.339 13.682 398.006 14.7836 399.357C15.8851 400.709 17.3875 401.675 19.074 402.118C20.7605 402.56 22.5439 402.455 24.1668 401.817C25.7897 401.18 27.1681 400.044 28.1032 398.572C29.0383 397.101 29.4817 395.37 29.3694 393.63L36.2685 393.185Z" fill="#FF6264"/>
<path d="M305.504 34.768C307.694 32.4225 309.081 29.4419 309.467 26.2564C309.853 23.0709 309.216 19.8452 307.649 17.0449C306.083 14.2446 303.667 12.0145 300.751 10.6764C297.834 9.33825 294.568 8.96134 291.423 9.60003C288.279 10.2387 285.419 11.86 283.255 14.2298C281.092 16.5997 279.738 19.5956 279.387 22.7852C279.037 25.9748 279.71 29.1932 281.308 31.9758C282.905 34.7584 285.346 36.9615 288.277 38.2669L291.09 31.9516C289.497 31.2422 288.171 30.0452 287.303 28.5332C286.435 27.0212 286.069 25.2725 286.26 23.5394C286.45 21.8063 287.186 20.1785 288.361 18.8908C289.537 17.6031 291.091 16.7222 292.799 16.3751C294.508 16.0281 296.283 16.2329 297.867 16.96C299.452 17.6871 300.765 18.8988 301.616 20.4204C302.467 21.942 302.813 23.6946 302.604 25.4255C302.394 27.1564 301.64 28.7759 300.45 30.0504L305.504 34.768Z" fill="#7B61FF"/>
<path d="M322.31 552.388C321.899 555.57 322.51 558.801 324.055 561.613C325.599 564.426 327.997 566.675 330.903 568.036C333.809 569.397 337.072 569.8 340.221 569.186C343.371 568.572 346.244 566.973 348.426 564.62C350.608 562.268 351.986 559.283 352.361 556.096C352.736 552.909 352.089 549.685 350.513 546.89C348.937 544.095 346.514 541.873 343.593 540.545C340.672 539.216 337.405 538.85 334.263 539.499L335.661 546.269C337.368 545.917 339.144 546.116 340.731 546.838C342.318 547.559 343.635 548.767 344.491 550.286C345.347 551.804 345.699 553.556 345.495 555.287C345.291 557.019 344.542 558.641 343.357 559.919C342.171 561.198 340.61 562.066 338.899 562.4C337.187 562.734 335.414 562.515 333.836 561.775C332.257 561.036 330.954 559.814 330.114 558.286C329.275 556.757 328.943 555.002 329.166 553.273L322.31 552.388Z" fill="#7B61FF"/>
<path d="M385 346C380.206 352.667 372.427 352.667 367.667 346C362.872 339.333 355.094 339.333 350.333 346C345.539 352.667 337.761 352.667 333 346" fill="#ECB0CD"/>
<path d="M385 357C380.206 363.667 372.427 363.667 367.667 357C362.872 350.333 355.094 350.333 350.333 357C345.539 363.667 337.761 363.667 333 357" fill="#ECB0CD"/>
<path d="M385 368.5C380.206 374.5 372.427 374.5 367.667 368.5C362.872 362.5 355.094 362.5 350.333 368.5C345.539 374.5 337.761 374.5 333 368.5" fill="#ECB0CD"/>
</g>
<defs>
<filter id="filter0_f_3307_78" x="0.0205078" y="0" width="390.979" height="575.466" filterUnits="userSpaceOnUse" color-interpolation-filters="sRGB">
<feFlood flood-opacity="0" result="BackgroundImageFix"/>
<feBlend mode="normal" in="SourceGraphic" in2="BackgroundImageFix" result="shape"/>
<feGaussianBlur stdDeviation="3" result="effect1_foregroundBlur_3307_78"/>
</filter>
</defs>
</svg>
