<svg width="327" height="256" viewBox="0 0 327 256" fill="none" xmlns="http://www.w3.org/2000/svg">
<path fill-rule="evenodd" clip-rule="evenodd" d="M97.0572 42.9135C105.415 68.0137 90.2235 83.8404 65.4174 86.5878C33.8528 82.3886 26.8893 61.1417 33.5726 42.8932C44.6295 12.7526 85.7953 8.98757 97.0572 42.9135Z" fill="#FFBD59"/>
<path d="M34.3545 36.7637C35.7334 38.7671 36.6614 39.8061 37.4503 42.2132" stroke="#01221D" stroke-width="1.42" stroke-linecap="round" stroke-linejoin="round"/>
<path d="M77.6953 24.3077C79.742 23.182 80.8389 22.355 83.113 21.9722" stroke="#01221D" stroke-width="1.42" stroke-linecap="round" stroke-linejoin="round"/>
<path d="M94.7227 77.2456C96.9057 77.6971 98.2035 77.8321 100.14 78.8026" stroke="#01221D" stroke-width="1.42" stroke-linecap="round" stroke-linejoin="round"/>
<path d="M54.4775 28.2002C56.1547 32.7752 62.5129 57.7355 60.1484 61.6759" stroke="#01221D" stroke-width="1.42" stroke-linecap="round" stroke-linejoin="round"/>
<path d="M93.9493 63.2327C89.4049 61.9443 64.9118 58.1657 61.4434 61.3866" stroke="#01221D" stroke-width="1.42" stroke-linecap="round" stroke-linejoin="round"/>
<path d="M86.2098 39.0991C82.1403 41.5044 62.0746 56.4088 61.4434 60.8973" stroke="#01221D" stroke-width="1.42" stroke-linecap="round" stroke-linejoin="round"/>
<path fill-rule="evenodd" clip-rule="evenodd" d="M161.301 86.5879C160.567 86.5862 159.841 86.7346 159.167 87.0236C158.493 87.3127 157.887 87.7363 157.386 88.2681C156.885 88.7999 156.499 89.4283 156.254 90.1143C156.008 90.8003 155.908 91.5292 155.959 92.2553C156.01 92.9815 156.211 93.6894 156.551 94.335C156.89 94.9806 157.359 95.55 157.93 96.0076C158.501 96.4652 159.16 96.8013 159.868 96.9948C160.576 97.1884 161.316 97.2353 162.042 97.1327C161.95 97.5154 161.892 97.9055 161.869 98.2984C161.508 104.803 166.891 109.466 158.115 114.785C146.996 121.534 125.292 99.2456 120.55 136.815C135.503 122.196 156.66 117.46 168.7 115.977C169.689 108.75 168.146 104.796 166.811 101.153C166.59 99.5436 173.382 95.2979 172.58 89.4824C174.838 92.8538 179.219 94.1587 181.075 93.2314C177.456 85.9454 170.938 87.0847 166.503 90.6548C166.224 89.4953 165.558 88.4632 164.614 87.7252C163.67 86.9872 162.503 86.5865 161.301 86.5879Z" fill="#01221D" stroke="#01221D" stroke-width="0.57" stroke-miterlimit="22.93"/>
<path fill-rule="evenodd" clip-rule="evenodd" d="M174.694 114.788C152.335 115.397 133.521 122.81 121.001 136.847C99.0476 183.746 93.353 126.961 84.0127 134.301C83.5338 136.781 62.3386 140.671 51.5813 142.208C50.2907 142.389 48.9801 145.29 49.5855 147.316C53.9496 161.654 84.7113 214.923 123.789 201.888C128.359 217.597 114.315 226.775 127.647 231.969C150.266 240.719 181.001 233.306 201.837 235.906C219.846 238.159 237.974 233.774 237.349 227.764C236.923 223.707 234.222 217.069 234.135 210.384C253.581 214.663 282.214 202.303 280.897 128.712C280.75 120.591 243.682 116.76 242.431 121.152C239.85 141.38 240.469 147.616 235.779 147.021C225.367 145.671 225.66 113.405 174.694 114.788Z" fill="#07BFA5"/>
<path fill-rule="evenodd" clip-rule="evenodd" d="M180.442 133.01C180.219 133.032 180.011 133.12 179.855 133.258C179.698 133.397 179.601 133.578 179.581 133.771C179.558 133.856 179.556 133.944 179.575 134.03C179.594 134.116 179.634 134.198 179.692 134.269C179.75 134.341 179.825 134.402 179.911 134.447C179.998 134.492 180.095 134.521 180.196 134.532C180.419 134.511 180.627 134.423 180.784 134.284C180.941 134.146 181.037 133.964 181.056 133.771C181.079 133.686 181.081 133.597 181.062 133.511C181.043 133.425 181.003 133.344 180.945 133.272C180.887 133.2 180.813 133.14 180.726 133.095C180.639 133.05 180.542 133.021 180.442 133.01Z" fill="#01221D"/>
<path fill-rule="evenodd" clip-rule="evenodd" d="M167.916 116.081C167.014 114.83 167.849 111.59 168.095 109.178C168.38 106.375 165.442 101.16 166.019 100.367C167.345 98.5835 171.987 95.5488 171.794 88.8711C175.839 94.8926 181.363 92.5619 180.514 92.767C181.389 94.134 182.298 99.6019 182.563 99.6634C189.697 101.762 191.342 102.725 183.193 104.735C183.65 108.152 184.704 114.789 185.328 117.789C179.552 117.325 169.487 118.241 167.916 116.081Z" fill="white"/>
<path d="M167.623 114.745C167.388 111.341 168.967 109.019 166.071 101.474C164.888 98.4102 172.381 96.919 171.582 89.0612C171.44 87.6517 175.143 94.6039 180.318 92.779" stroke="#01221D" stroke-width="2.13" stroke-linecap="round" stroke-linejoin="round"/>
<path d="M173.509 99.5249C173.091 99.5249 172.753 99.1842 172.753 98.7639C172.753 98.3436 173.091 98.0029 173.509 98.0029C173.927 98.0029 174.266 98.3436 174.266 98.7639C174.266 99.1842 173.927 99.5249 173.509 99.5249Z" fill="#01221D"/>
<path d="M180.319 97.2422C179.901 97.2422 179.562 96.9015 179.562 96.4812C179.562 96.0609 179.901 95.7202 180.319 95.7202C180.736 95.7202 181.075 96.0609 181.075 96.4812C181.075 96.9015 180.736 97.2422 180.319 97.2422Z" fill="#01221D"/>
<path fill-rule="evenodd" clip-rule="evenodd" d="M295.255 102.885C296.356 102.478 302.644 103.562 302.598 107.01C312.03 109.523 300.283 118.132 280.231 122.772C278.493 123.172 278.685 126.877 277.06 127.609C259.303 134.857 232.658 129.824 248.929 108.758C255.124 102.268 262.925 98.0279 267.435 97.2422C275.515 97.2964 275.667 99.8636 274.122 102.451C285.305 99.2608 293.218 99.1727 295.255 102.885Z" fill="white"/>
<path fill-rule="evenodd" clip-rule="evenodd" d="M183.468 147.469C183.244 147.49 183.036 147.577 182.879 147.716C182.722 147.855 182.626 148.036 182.607 148.23C182.584 148.315 182.582 148.403 182.601 148.489C182.62 148.575 182.66 148.657 182.718 148.728C182.776 148.8 182.851 148.861 182.938 148.906C183.025 148.951 183.121 148.98 183.222 148.991C183.446 148.97 183.654 148.882 183.811 148.743C183.968 148.605 184.064 148.423 184.083 148.23C184.106 148.145 184.108 148.056 184.089 147.97C184.07 147.884 184.03 147.803 183.972 147.731C183.914 147.659 183.839 147.599 183.752 147.554C183.665 147.509 183.569 147.48 183.468 147.469Z" fill="#01221D"/>
<path fill-rule="evenodd" clip-rule="evenodd" d="M30.4544 125.124C29.2882 124.979 23.3507 127.357 24.1437 130.647C15.434 135.094 28.8084 140.729 49.4665 140.788C51.2591 140.788 51.8655 144.363 53.6181 144.706C66.0196 146.82 81.5132 141.773 83.9521 132.98C85.0384 129.055 83.0259 123.73 77.4682 118.584C68.3853 113.629 67.7989 119.628 53.3449 114.468C48.1804 112.625 47.6806 116.371 49.4798 120.282C39.0042 119.641 33.3865 121.154 30.4544 125.124Z" fill="white"/>
<path d="M178 97.6994C179.157 99.4911 197.274 102.602 185.105 104.593C182.599 105.006 177.249 103.361 175.176 101.602M279.421 111.293C301.646 103.301 313.808 107.204 300.164 115.956C295.073 119.213 284.213 120.891 279.168 123.282C277.952 123.848 277.912 127.145 277.4 127.418C272.084 130.202 251.906 134.358 243.073 123.255M274.257 107.803C276.344 106.231 299.512 99.2247 303.088 106.678M267.484 106.951C277.394 98.7851 293.61 99.5044 295.598 103.148M245.665 124.634C236.626 106.425 275.932 91.5119 274.629 102.242M221.553 132.087C223.746 133.706 229.01 143.703 234.021 147.02C239.338 150.563 242.096 131.121 242.408 121.471M241.139 142.378C258.02 148.918 270.894 147.353 279.554 142.451M227.78 163.911C224.876 169.379 231.834 206.304 237.424 225.853M279.035 126.852C279.7 127.119 280.298 128.557 280.365 130.422C281.415 161.247 272.775 209.954 238.76 210.574C237.982 210.574 235.217 210.62 234.579 209.908M183.244 122.909C183.244 133.566 191.027 156.831 190.655 168.2C190.249 180.462 194.955 191.998 197.002 203.354C197.613 206.751 198.55 215.209 199.607 223.908M191.505 118.527C192.192 120.608 192.699 122.745 193.021 124.914C191.977 123.988 181.908 119.199 181.868 119.279C176.95 129.11 175.428 130.256 168.888 118.76C168.729 118.545 168.622 118.297 168.576 118.034M171.999 105.539C174.298 109.815 178.12 110.201 181.563 106.971M134.076 138.941C138.03 143.257 143.128 167.121 140.137 183.179M51.1914 142.784C48.533 144.023 49.3837 147.992 50.1613 149.637C66.5441 184.205 104.088 226.592 140.469 190.206M93.5541 151.775C78.5072 161.853 65.6003 163.145 56.083 160.248M47.6756 129.849C24.2479 126.912 13.2219 133.386 28.4483 138.927C34.1241 140.992 45.0637 140.26 50.5268 141.458C51.8561 141.745 52.5938 144.955 53.1853 145.108C58.9542 146.667 78.2879 147.106 84.4888 134.338M51.9823 125.28C49.603 124.201 25.4974 122.43 23.6032 130.489M58.4092 122.969C46.9578 117.168 31.2928 121.417 30.143 125.407M83.5516 135.451C85.9177 125.826 77.5701 115.37 68.1591 116.682C55.2323 118.48 45.8147 108.849 49.1644 119.939M65.607 124.161C62.8621 126 61.7057 128.351 61.6193 130.542M183.291 99.8108C183.04 97.4385 182.332 95.1379 181.204 93.0371C177.994 86.3767 171.075 86.2102 166.416 90.3729C166.118 89.3864 165.541 88.5076 164.755 87.843C163.969 87.1785 163.007 86.7568 161.986 86.629C160.966 86.5012 159.93 86.6728 159.005 87.1231C158.079 87.5733 157.304 88.2828 156.773 89.1656C156.242 90.0484 155.978 91.0666 156.013 92.0968C156.048 93.1269 156.38 94.1249 156.97 94.9696C157.559 95.8143 158.38 96.4696 159.334 96.856C160.287 97.2424 161.332 97.3434 162.342 97.1466C160.92 103.014 166.748 108.896 159.876 113.938C147.548 122.982 121.647 97.1733 116.065 134.971M185.81 116.748C185.085 113.418 184.54 108.429 183.995 104.646L185.81 116.748Z" stroke="#01221D" stroke-width="1.42" stroke-linecap="round" stroke-linejoin="round"/>
<path d="M253.99 18.6286C254.847 18.5038 255.627 18.119 256.417 17.7737C257.023 17.5092 257.672 17.321 258.301 17.1215C259.537 16.7295 260.795 16.4359 262.034 16.055C262.489 15.9153 262.984 15.8341 263.449 15.7377C263.869 15.6507 264.3 15.5031 264.724 15.4556C266.052 15.3072 267.356 14.9432 268.676 14.7417C273.483 14.0078 278.331 13.5518 283.204 13.5518C285.527 13.5518 287.892 13.4171 290.188 13.8294C290.997 13.9749 291.809 14.2015 292.628 14.2701C292.978 14.2995 293.304 14.4686 293.658 14.5081C293.903 14.5356 294.299 14.6404 294.525 14.7417C295.145 15.0189 295.988 15.1928 296.654 15.3146C297.424 15.4553 298.137 15.7969 298.897 15.936C299.383 16.0248 299.635 17.1348 299.73 17.5181" stroke="#01221D" stroke-width="1.4" stroke-linecap="round"/>
<path d="M300.443 33.4415C283.457 29.7337 264.02 32.0673 253.706 34.2457C251.641 34.6817 250.159 36.4398 250.008 38.5445C249.141 50.5787 248.379 73.6415 252.145 76.5879C256.322 79.8555 260.963 76.5879 270.244 77.9883C284.288 79.2275 293.113 78.7533 298.049 77.9303C301.095 77.4223 302.929 74.7989 303.198 71.7225C304.348 58.5911 305.19 38.7483 301.973 34.2843C301.619 33.7926 301.035 33.5708 300.443 33.4415Z" fill="#FF6264"/>
<path d="M299.016 16.3711C299.48 17.3047 300.221 18.9274 300.563 19.6599C301.068 20.7448 301.796 21.7067 302.385 22.7448C303.304 24.3644 304.064 26.0175 304.698 27.7687C305.133 28.9685 305.642 30.21 305.82 31.4794C305.964 32.5113 306.641 33.4341 306.67 34.4938C306.692 35.3094 306.828 35.8304 306.372 36.5562C306.125 36.9497 305.86 37.1115 305.408 37.1115C304.752 37.1115 304.093 37.1298 303.437 37.1115C303.093 37.1019 302.381 36.9418 302.113 36.6973C301.376 36.0226 300.952 35.1389 300.536 34.2558C299.906 32.9182 299.426 31.5521 299.134 30.0868C298.9 28.9089 298.745 27.6783 298.468 26.5171C298.142 25.1477 298.033 23.6951 297.636 22.3482C297.402 21.554 297.415 20.662 297.128 19.8802C296.963 19.4322 295.969 15.8418 295.768 15.4375" stroke="#01221D" stroke-width="1.4" stroke-linecap="round"/>
<path d="M300.676 35.6836C300.384 37.025 299.016 36.9528 297.916 36.9528C297.325 36.9528 296.737 36.4906 296.576 35.9216C296.448 35.4717 296.283 35.0297 296.164 34.5731C296.023 34.0361 295.969 33.4697 295.822 32.9425C295.428 31.5284 295.438 29.9911 295.077 28.562C294.83 27.5844 294.659 26.576 294.429 25.5917C294.186 24.5518 293.772 23.5756 293.5 22.5509C293.316 21.8581 293.113 21.1461 292.909 20.462C292.693 19.7388 292.527 18.9979 292.335 18.2673C292.244 17.9245 291.127 14.8162 291.127 14.5039" stroke="#01221D" stroke-width="1.4" stroke-linecap="round"/>
<path d="M295.767 34.128C295.35 34.6829 294.624 35.3612 293.894 35.8423C292.983 36.4433 292.055 36.4433 290.744 35.9172C289.866 35.8289 289.464 34.8555 289.276 34.128C289.147 33.6254 288.887 33.1604 288.786 32.6517C288.678 32.1076 288.613 31.5468 288.488 31.0079C287.891 28.433 287.587 25.7858 287.252 23.1767C287.098 21.9716 286.802 20.7157 286.42 19.5629C286.287 19.1618 285.033 13.7729 284.63 13.5703" stroke="#01221D" stroke-width="1.4" stroke-linecap="round"/>
<path d="M289.271 34.1093C288.942 34.5461 288.596 34.8253 288.212 35.212C287.962 35.4636 287.617 35.9013 287.27 36.0009C287.011 36.0754 286.743 36.2795 286.481 36.3799C286.186 36.4931 285.694 36.3975 285.377 36.3975C284.497 36.3975 283.657 35.5453 283.287 34.8022C282.692 33.6036 282.026 32.4308 281.587 31.162C281.26 30.2164 280.84 29.3212 280.567 28.3592C280.269 27.3107 280.114 26.231 279.857 25.1686C279.37 23.1597 279.021 21.0384 278.748 18.9856C278.572 17.652 278.189 16.325 278.122 14.9796C278.109 14.7295 278.082 14.3341 277.982 14.1071C277.947 14.0288 277.964 13.4861 277.964 13.7898" stroke="#01221D" stroke-width="1.4" stroke-linecap="round"/>
<path d="M282.301 33.7005C282.283 34.1804 282.145 34.6013 281.986 35.0491C281.886 35.3294 281.664 35.5554 281.591 35.8467C281.523 36.1203 281.247 36.5175 281.039 36.7149C280.493 37.2343 279.648 37.3495 278.928 37.3495C278.169 37.3495 277.55 37.4323 276.956 36.8559C276.138 36.0626 275.683 35.131 275.282 34.0795C274.796 32.8014 274.556 31.4578 274.178 30.1485C273.629 28.2456 273.407 26.3118 273.03 24.3754C272.59 22.1076 272.272 19.8152 271.97 17.5269C271.89 16.9218 271.734 16.3454 271.734 15.7333C271.734 15.3181 271.636 14.9707 271.636 14.5039" stroke="#01221D" stroke-width="1.4" stroke-linecap="round"/>
<path d="M275.362 35.3663C274.813 36.7289 273.274 37.8254 271.813 37.8254C270.992 37.8254 270.272 37.8623 269.648 37.2349C269.029 36.6118 268.692 35.7479 268.518 34.8728C268.229 33.4174 267.938 31.9974 267.773 30.5099C267.58 28.7585 267.554 26.9793 267.554 25.2171C267.554 23.1689 267.406 21.0603 267.668 19.0297C267.874 17.4339 267.923 16.5764 267.923 14.9707" stroke="#01221D" stroke-width="1.4" stroke-linecap="round"/>
<path d="M262.355 16.3711C262.355 18.4868 261.923 19.9543 261.281 21.9691C260.762 23.5951 260.706 25.2657 260.335 26.9182C259.951 28.6293 259.905 30.4917 259.905 32.2418C259.905 33.6645 259.984 35.25 260.615 36.5562C260.905 37.1563 261.397 37.6358 261.815 38.1427C262.171 38.5738 262.468 38.8773 262.92 39.174C263.214 39.3673 263.811 39.2533 264.146 39.2533C264.697 39.2533 265.29 39.3262 265.82 39.174C266.294 39.0378 266.699 38.5495 267.042 38.2221C267.352 37.9265 267.82 37.4929 267.949 37.0718C268.064 36.6955 268.393 36.3638 268.501 35.9569C268.571 35.6931 268.659 35.3159 268.659 35.049" stroke="#01221D" stroke-width="1.4" stroke-linecap="round"/>
<path d="M260.773 36.6355C260.024 37.3891 259.105 38.463 257.978 38.6142C257.361 38.6969 255.928 38.7967 255.647 38.0193C255.585 37.8491 255.442 37.7895 255.371 37.6227C255.255 37.3512 255.171 37.0791 254.998 36.8382C254.709 36.4355 254.536 36.0167 254.446 35.5426C254.224 34.3656 254.148 33.2546 254.148 32.0434C254.148 30.5592 254.134 29.1293 254.622 27.707C255.237 25.9127 256.078 24.1933 256.909 22.4759C257.443 21.3705 257.996 20.2917 258.486 19.1839C258.854 18.3497 259.107 16.3917 259.107 17.3047" stroke="#01221D" stroke-width="1.4" stroke-linecap="round"/>
<path d="M254.385 36.001C254.009 36.3898 253.755 36.8722 253.377 37.2525C253.122 37.5087 252.828 37.7257 252.571 37.9841C252.319 38.2368 252.174 38.4649 251.822 38.5438C251.394 38.6394 250.966 38.6187 250.52 38.6187C249.975 38.6187 249.59 38.4402 249.118 38.2397C248.86 38.1297 248.585 37.6689 248.452 37.4288C248.252 37.0666 247.941 36.6524 247.839 36.2434C247.552 35.0898 247.681 33.8192 247.681 32.6296C247.681 31.9027 247.688 31.2658 247.878 30.5628C248.137 29.6108 248.501 28.7255 248.864 27.8128C249.457 26.3222 250.061 24.8537 250.875 23.4675C251.811 21.8751 253.345 20.4519 254.002 18.7051" stroke="#01221D" stroke-width="1.4" stroke-linecap="round"/>
<path d="M277.911 77.5459C277.911 75.0258 277.15 72.5675 277.15 70.0762C277.15 67.8107 276.769 65.5761 276.769 63.3017C276.769 60.9908 276.515 58.7006 276.515 56.4067C276.515 54.4746 276.202 52.267 276.769 50.4125C277.019 49.5951 277.47 48.8655 277.911 48.1496C278.115 47.8195 278.383 47.5149 278.597 47.1795C278.797 46.8675 279.011 46.6406 279.153 46.2911C280.453 43.9119 283.126 43.6772 285.112 43.1486C286.512 42.7758 288.143 42.8152 289.59 42.8152C290.869 42.8152 291.918 43.1309 292.918 43.936C293.345 44.2794 293.766 44.655 294.18 45.0459C294.802 45.6332 295.186 46.2721 295.584 47.0288V47.0288C295.828 47.4926 295.956 47.9665 296.162 48.4334C296.349 48.8551 296.322 49.3695 296.508 49.7812C296.867 50.5762 296.688 51.3365 296.889 52.1434C297.273 53.6903 297.206 55.5252 297.206 57.1231C297.206 61.4425 297.333 65.7987 297.333 70.1329C297.333 71.6801 297.29 73.2201 297.206 74.7368C297.141 75.9209 297.098 76.875 296.696 77.988" stroke="#01221D" stroke-width="1.4" stroke-linecap="round"/>
<path d="M280.704 61.0742C279.854 61.0742 278.995 61.2818 279.314 62.4078C279.347 62.524 280.104 62.7765 280.252 62.8618C280.491 62.9989 280.835 63.3721 281.085 62.9328C281.242 62.6562 281.465 62.4442 281.465 62.0957C281.465 61.7017 280.872 61.8403 280.577 61.8403C280.263 61.8403 279.802 62.3278 280.196 62.3511C280.591 62.3745 280.958 62.3184 280.958 61.8403" stroke="#01221D" stroke-width="1.4" stroke-linecap="round"/>
</svg>
