<svg width="191" height="40" viewBox="0 0 191 40" fill="none" xmlns="http://www.w3.org/2000/svg">
<rect width="40" height="40" rx="8.15126" fill="#07BFA5"/>
<path fill-rule="evenodd" clip-rule="evenodd" d="M8.13851 9.16467C8.84193 8.85479 9.33301 8.15149 9.33301 7.3335C9.33301 6.22893 8.43758 5.3335 7.33301 5.3335C6.22844 5.3335 5.33301 6.22893 5.33301 7.3335C5.33301 8.25528 5.9566 9.03141 6.80494 9.26304C7.73983 15.7125 13.2912 20.6668 19.9997 20.6668C26.7082 20.6668 32.2595 15.7125 33.1944 9.26306C34.0428 9.03145 34.6664 8.2553 34.6664 7.3335C34.6664 6.22893 33.771 5.3335 32.6664 5.3335C31.5618 5.3335 30.6664 6.22893 30.6664 7.3335C30.6664 8.15147 31.1574 8.85476 31.8608 9.16464C30.9792 14.9229 26.0045 19.3335 19.9997 19.3335C13.9949 19.3335 9.02019 14.9229 8.13851 9.16467Z" fill="white"/>
<path d="M70.144 24.632C70.144 25.8267 69.8347 26.9253 69.216 27.928C68.6187 28.9307 67.7227 29.7307 66.528 30.328C65.3547 30.9253 63.9253 31.224 62.24 31.224C59.7013 31.224 57.6107 30.6053 55.968 29.368C54.3253 28.1307 53.4293 26.4027 53.28 24.184H59.104C59.1893 25.0373 59.488 25.7093 60 26.2C60.5333 26.6907 61.2053 26.936 62.016 26.936C62.72 26.936 63.2747 26.744 63.68 26.36C64.0853 25.976 64.288 25.464 64.288 24.824C64.288 24.248 64.096 23.768 63.712 23.384C63.3493 23 62.8907 22.6907 62.336 22.456C61.7813 22.2 61.0133 21.9013 60.032 21.56C58.6027 21.0693 57.4293 20.6 56.512 20.152C55.616 19.6827 54.8373 19 54.176 18.104C53.536 17.1867 53.216 16.0027 53.216 14.552C53.216 13.208 53.5573 12.0453 54.24 11.064C54.9227 10.0827 55.8613 9.336 57.056 8.824C58.272 8.29067 59.6587 8.024 61.216 8.024C63.7333 8.024 65.728 8.62133 67.2 9.816C68.6933 11.0107 69.536 12.6533 69.728 14.744H63.808C63.7013 13.9973 63.424 13.4107 62.976 12.984C62.5493 12.536 61.9627 12.312 61.216 12.312C60.576 12.312 60.0533 12.4827 59.648 12.824C59.264 13.1653 59.072 13.6667 59.072 14.328C59.072 14.8613 59.2427 15.32 59.584 15.704C59.9467 16.0667 60.3947 16.3653 60.928 16.6C61.4613 16.8347 62.2293 17.1333 63.232 17.496C64.6827 17.9867 65.8667 18.4773 66.784 18.968C67.7013 19.4373 68.4907 20.1307 69.152 21.048C69.8133 21.9653 70.144 23.16 70.144 24.632ZM84.4973 12.952C86.5453 12.952 88.1666 13.6347 89.3612 15C90.5773 16.3653 91.1853 18.2427 91.1853 20.632V31H85.7133V21.272C85.7133 20.0773 85.3933 19.1493 84.7533 18.488C84.1346 17.8053 83.3026 17.464 82.2573 17.464C81.1479 17.464 80.2626 17.816 79.6013 18.52C78.9613 19.224 78.6413 20.2267 78.6413 21.528V31H73.1693V7.32H78.6413V16.408C79.1533 15.3413 79.9106 14.4987 80.9133 13.88C81.9373 13.2613 83.1319 12.952 84.4973 12.952ZM103.146 12.92C104.917 12.92 106.496 13.2933 107.882 14.04C109.29 14.7653 110.389 15.8213 111.178 17.208C111.989 18.5947 112.394 20.216 112.394 22.072C112.394 23.928 111.989 25.5493 111.178 26.936C110.389 28.3227 109.29 29.3893 107.882 30.136C106.496 30.8613 104.917 31.224 103.146 31.224C101.376 31.224 99.7863 30.8613 98.3783 30.136C96.9703 29.3893 95.8609 28.3227 95.0503 26.936C94.2609 25.5493 93.8663 23.928 93.8663 22.072C93.8663 20.216 94.2609 18.5947 95.0503 17.208C95.8609 15.8213 96.9703 14.7653 98.3783 14.04C99.7863 13.2933 101.376 12.92 103.146 12.92ZM103.146 17.656C102.101 17.656 101.216 18.04 100.49 18.808C99.7863 19.5547 99.4343 20.6427 99.4343 22.072C99.4343 23.5013 99.7863 24.5893 100.49 25.336C101.216 26.0827 102.101 26.456 103.146 26.456C104.192 26.456 105.066 26.0827 105.77 25.336C106.474 24.5893 106.826 23.5013 106.826 22.072C106.826 20.6427 106.474 19.5547 105.77 18.808C105.066 18.04 104.192 17.656 103.146 17.656ZM126.368 12.92C127.84 12.92 129.152 13.2933 130.304 14.04C131.477 14.7653 132.394 15.8213 133.056 17.208C133.738 18.5733 134.08 20.1947 134.08 22.072C134.08 23.928 133.738 25.5493 133.056 26.936C132.394 28.3227 131.477 29.3893 130.304 30.136C129.152 30.8613 127.84 31.224 126.368 31.224C125.002 31.224 123.829 30.9147 122.848 30.296C121.866 29.6773 121.152 28.8347 120.704 27.768V39.512H115.232V13.144H120.704V16.376C121.152 15.3093 121.866 14.4667 122.848 13.848C123.829 13.2293 125.002 12.92 126.368 12.92ZM124.608 17.72C123.456 17.72 122.506 18.1147 121.76 18.904C121.034 19.672 120.672 20.728 120.672 22.072C120.672 23.3947 121.034 24.4507 121.76 25.24C122.506 26.0293 123.456 26.424 124.608 26.424C125.781 26.424 126.72 26.04 127.424 25.272C128.149 24.504 128.512 23.4373 128.512 22.072C128.512 20.7067 128.149 19.64 127.424 18.872C126.72 18.104 125.781 17.72 124.608 17.72Z" fill="white"/>
<path d="M148.055 12.92C149.527 12.92 150.839 13.2933 151.991 14.04C153.165 14.7653 154.082 15.8213 154.743 17.208C155.426 18.5733 155.767 20.1947 155.767 22.072C155.767 23.928 155.426 25.5493 154.743 26.936C154.082 28.3227 153.165 29.3893 151.991 30.136C150.839 30.8613 149.527 31.224 148.055 31.224C146.69 31.224 145.517 30.9147 144.535 30.296C143.554 29.6773 142.839 28.8347 142.391 27.768V39.512H136.919V13.144H142.391V16.376C142.839 15.3093 143.554 14.4667 144.535 13.848C145.517 13.2293 146.69 12.92 148.055 12.92ZM146.295 17.72C145.143 17.72 144.194 18.1147 143.447 18.904C142.722 19.672 142.359 20.728 142.359 22.072C142.359 23.3947 142.722 24.4507 143.447 25.24C144.194 26.0293 145.143 26.424 146.295 26.424C147.469 26.424 148.407 26.04 149.111 25.272C149.837 24.504 150.199 23.4373 150.199 22.072C150.199 20.7067 149.837 19.64 149.111 18.872C148.407 18.104 147.469 17.72 146.295 17.72ZM175.567 21.592C175.567 22.04 175.513 22.5307 175.407 23.064H163.023C163.087 24.408 163.428 25.3787 164.047 25.976C164.665 26.552 165.455 26.84 166.415 26.84C167.225 26.84 167.897 26.6373 168.431 26.232C168.964 25.8267 169.316 25.304 169.487 24.664H175.279C175.044 25.9227 174.532 27.0533 173.743 28.056C172.953 29.0373 171.951 29.816 170.735 30.392C169.519 30.9467 168.164 31.224 166.671 31.224C164.921 31.224 163.364 30.8613 161.999 30.136C160.655 29.3893 159.599 28.3227 158.831 26.936C158.063 25.5493 157.679 23.928 157.679 22.072C157.679 20.1947 158.052 18.5733 158.799 17.208C159.567 15.8213 160.633 14.7653 161.999 14.04C163.364 13.2933 164.921 12.92 166.671 12.92C168.441 12.92 169.999 13.2827 171.343 14.008C172.687 14.7333 173.721 15.7573 174.447 17.08C175.193 18.3813 175.567 19.8853 175.567 21.592ZM170.031 20.76C170.052 19.5867 169.732 18.712 169.071 18.136C168.431 17.5387 167.631 17.24 166.671 17.24C165.668 17.24 164.836 17.5387 164.175 18.136C163.513 18.7333 163.14 19.608 163.055 20.76H170.031ZM183.891 16.504C184.574 15.416 185.449 14.552 186.515 13.912C187.603 13.272 188.777 12.952 190.035 12.952V18.808H188.467C187.017 18.808 185.886 19.1173 185.075 19.736C184.286 20.3547 183.891 21.4 183.891 22.872V31H178.419V13.144H183.891V16.504Z" fill="#07BFA5"/>
</svg>
