<svg width="238" height="52" viewBox="0 0 238 52" fill="none" xmlns="http://www.w3.org/2000/svg">
<rect y="2" width="48" height="48" rx="10" fill="#07BFA5"/>
<path fill-rule="evenodd" clip-rule="evenodd" d="M9.76699 12.9973C10.6111 12.6255 11.2004 11.7815 11.2004 10.7999C11.2004 9.47442 10.1259 8.3999 8.80039 8.3999C7.47491 8.3999 6.40039 9.47442 6.40039 10.7999C6.40039 11.906 7.1487 12.8374 8.1667 13.1154C9.28858 20.8547 15.9502 26.7999 24.0004 26.7999C32.0506 26.7999 38.7122 20.8547 39.8341 13.1154C40.8521 12.8374 41.6004 11.906 41.6004 10.7999C41.6004 9.47442 40.5259 8.3999 39.2004 8.3999C37.8749 8.3999 36.8004 9.47442 36.8004 10.7999C36.8004 11.7815 37.3897 12.6255 38.2338 12.9973C37.1758 19.9072 31.2062 25.1999 24.0004 25.1999C16.7946 25.1999 10.825 19.9072 9.76699 12.9973Z" fill="white"/>
<path d="M86.68 32.04C86.68 33.5333 86.2933 34.9067 85.52 36.16C84.7733 37.4133 83.6533 38.4133 82.16 39.16C80.6933 39.9067 78.9067 40.28 76.8 40.28C73.6267 40.28 71.0133 39.5067 68.96 37.96C66.9067 36.4133 65.7867 34.2533 65.6 31.48H72.88C72.9867 32.5467 73.36 33.3867 74 34C74.6667 34.6133 75.5067 34.92 76.52 34.92C77.4 34.92 78.0933 34.68 78.6 34.2C79.1067 33.72 79.36 33.08 79.36 32.28C79.36 31.56 79.12 30.96 78.64 30.48C78.1867 30 77.6133 29.6133 76.92 29.32C76.2267 29 75.2667 28.6267 74.04 28.2C72.2533 27.5867 70.7867 27 69.64 26.44C68.52 25.8533 67.5467 25 66.72 23.88C65.92 22.7333 65.52 21.2533 65.52 19.44C65.52 17.76 65.9467 16.3067 66.8 15.08C67.6533 13.8533 68.8267 12.92 70.32 12.28C71.84 11.6133 73.5733 11.28 75.52 11.28C78.6667 11.28 81.16 12.0267 83 13.52C84.8667 15.0133 85.92 17.0667 86.16 19.68H78.76C78.6267 18.7467 78.28 18.0133 77.72 17.48C77.1867 16.92 76.4533 16.64 75.52 16.64C74.72 16.64 74.0667 16.8533 73.56 17.28C73.08 17.7067 72.84 18.3333 72.84 19.16C72.84 19.8267 73.0533 20.4 73.48 20.88C73.9333 21.3333 74.4933 21.7067 75.16 22C75.8267 22.2933 76.7867 22.6667 78.04 23.12C79.8533 23.7333 81.3333 24.3467 82.48 24.96C83.6267 25.5467 84.6133 26.4133 85.44 27.56C86.2667 28.7067 86.68 30.2 86.68 32.04ZM104.622 17.44C107.182 17.44 109.208 18.2933 110.702 20C112.222 21.7067 112.982 24.0533 112.982 27.04V40H106.142V27.84C106.142 26.3467 105.742 25.1867 104.942 24.36C104.168 23.5067 103.128 23.08 101.822 23.08C100.435 23.08 99.3282 23.52 98.5016 24.4C97.7016 25.28 97.3016 26.5333 97.3016 28.16V40H90.4616V10.4H97.3016V21.76C97.9416 20.4267 98.8882 19.3733 100.142 18.6C101.422 17.8267 102.915 17.44 104.622 17.44ZM127.933 17.4C130.146 17.4 132.119 17.8667 133.853 18.8C135.613 19.7067 136.986 21.0267 137.973 22.76C138.986 24.4933 139.493 26.52 139.493 28.84C139.493 31.16 138.986 33.1867 137.973 34.92C136.986 36.6533 135.613 37.9867 133.853 38.92C132.119 39.8267 130.146 40.28 127.933 40.28C125.719 40.28 123.733 39.8267 121.973 38.92C120.213 37.9867 118.826 36.6533 117.813 34.92C116.826 33.1867 116.333 31.16 116.333 28.84C116.333 26.52 116.826 24.4933 117.813 22.76C118.826 21.0267 120.213 19.7067 121.973 18.8C123.733 17.8667 125.719 17.4 127.933 17.4ZM127.933 23.32C126.626 23.32 125.519 23.8 124.613 24.76C123.733 25.6933 123.293 27.0533 123.293 28.84C123.293 30.6267 123.733 31.9867 124.613 32.92C125.519 33.8533 126.626 34.32 127.933 34.32C129.239 34.32 130.333 33.8533 131.213 32.92C132.093 31.9867 132.533 30.6267 132.533 28.84C132.533 27.0533 132.093 25.6933 131.213 24.76C130.333 23.8 129.239 23.32 127.933 23.32ZM156.96 17.4C158.8 17.4 160.44 17.8667 161.88 18.8C163.346 19.7067 164.493 21.0267 165.32 22.76C166.173 24.4667 166.6 26.4933 166.6 28.84C166.6 31.16 166.173 33.1867 165.32 34.92C164.493 36.6533 163.346 37.9867 161.88 38.92C160.44 39.8267 158.8 40.28 156.96 40.28C155.253 40.28 153.786 39.8933 152.56 39.12C151.333 38.3467 150.44 37.2933 149.88 35.96V50.64H143.04V17.68H149.88V21.72C150.44 20.3867 151.333 19.3333 152.56 18.56C153.786 17.7867 155.253 17.4 156.96 17.4ZM154.76 23.4C153.32 23.4 152.133 23.8933 151.2 24.88C150.293 25.84 149.84 27.16 149.84 28.84C149.84 30.4933 150.293 31.8133 151.2 32.8C152.133 33.7867 153.32 34.28 154.76 34.28C156.226 34.28 157.4 33.8 158.28 32.84C159.186 31.88 159.64 30.5467 159.64 28.84C159.64 27.1333 159.186 25.8 158.28 24.84C157.4 23.88 156.226 23.4 154.76 23.4Z" fill="#01040D"/>
<path d="M184.069 17.4C185.909 17.4 187.549 17.8667 188.989 18.8C190.456 19.7067 191.602 21.0267 192.429 22.76C193.282 24.4667 193.709 26.4933 193.709 28.84C193.709 31.16 193.282 33.1867 192.429 34.92C191.602 36.6533 190.456 37.9867 188.989 38.92C187.549 39.8267 185.909 40.28 184.069 40.28C182.362 40.28 180.896 39.8933 179.669 39.12C178.442 38.3467 177.549 37.2933 176.989 35.96V50.64H170.149V17.68H176.989V21.72C177.549 20.3867 178.442 19.3333 179.669 18.56C180.896 17.7867 182.362 17.4 184.069 17.4ZM181.869 23.4C180.429 23.4 179.242 23.8933 178.309 24.88C177.402 25.84 176.949 27.16 176.949 28.84C176.949 30.4933 177.402 31.8133 178.309 32.8C179.242 33.7867 180.429 34.28 181.869 34.28C183.336 34.28 184.509 33.8 185.389 32.84C186.296 31.88 186.749 30.5467 186.749 28.84C186.749 27.1333 186.296 25.8 185.389 24.84C184.509 23.88 183.336 23.4 181.869 23.4ZM218.458 28.24C218.458 28.8 218.392 29.4133 218.258 30.08H202.778C202.858 31.76 203.285 32.9733 204.058 33.72C204.832 34.44 205.818 34.8 207.018 34.8C208.032 34.8 208.872 34.5467 209.538 34.04C210.205 33.5333 210.645 32.88 210.858 32.08H218.098C217.805 33.6533 217.165 35.0667 216.178 36.32C215.192 37.5467 213.938 38.52 212.418 39.24C210.898 39.9333 209.205 40.28 207.338 40.28C205.152 40.28 203.205 39.8267 201.498 38.92C199.818 37.9867 198.498 36.6533 197.538 34.92C196.578 33.1867 196.098 31.16 196.098 28.84C196.098 26.4933 196.565 24.4667 197.498 22.76C198.458 21.0267 199.792 19.7067 201.498 18.8C203.205 17.8667 205.152 17.4 207.338 17.4C209.552 17.4 211.498 17.8533 213.178 18.76C214.858 19.6667 216.152 20.9467 217.058 22.6C217.992 24.2267 218.458 26.1067 218.458 28.24ZM211.538 27.2C211.565 25.7333 211.165 24.64 210.338 23.92C209.538 23.1733 208.538 22.8 207.338 22.8C206.085 22.8 205.045 23.1733 204.218 23.92C203.392 24.6667 202.925 25.76 202.818 27.2H211.538ZM228.864 21.88C229.717 20.52 230.811 19.44 232.144 18.64C233.504 17.84 234.971 17.44 236.544 17.44V24.76H234.584C232.771 24.76 231.357 25.1467 230.344 25.92C229.357 26.6933 228.864 28 228.864 29.84V40H222.024V17.68H228.864V21.88Z" fill="#07BFA5"/>
</svg>
