<svg width="167" height="29" viewBox="0 0 167 29" fill="none" xmlns="http://www.w3.org/2000/svg">
<rect x="33" y="18" width="102" height="8" fill="#F5B3A5"/>
<path d="M46.1199 22L42.7539 16.126H41.8959V22H38.1339V6.446H44.5579C45.7899 6.446 46.8313 6.65867 47.6819 7.084C48.5326 7.50933 49.1706 8.096 49.5959 8.844C50.0213 9.57733 50.2339 10.4207 50.2339 11.374C50.2339 12.5033 49.9186 13.464 49.2879 14.256C48.6719 15.048 47.7699 15.5907 46.5819 15.884L50.2779 22H46.1199ZM41.8959 13.552H44.2279C44.9759 13.552 45.5259 13.3907 45.8779 13.068C46.2299 12.7307 46.4059 12.2393 46.4059 11.594C46.4059 10.978 46.2226 10.494 45.8559 10.142C45.5039 9.79 44.9613 9.614 44.2279 9.614H41.8959V13.552ZM63.7803 15.532C63.7803 15.84 63.7436 16.1773 63.6703 16.544H55.1563C55.2003 17.468 55.4349 18.1353 55.8603 18.546C56.2856 18.942 56.8283 19.14 57.4883 19.14C58.0456 19.14 58.5076 19.0007 58.8743 18.722C59.2409 18.4433 59.4829 18.084 59.6003 17.644H63.5823C63.4209 18.5093 63.0689 19.2867 62.5263 19.976C61.9836 20.6507 61.2943 21.186 60.4583 21.582C59.6223 21.9633 58.6909 22.154 57.6643 22.154C56.4616 22.154 55.3909 21.9047 54.4523 21.406C53.5283 20.8927 52.8023 20.1593 52.2743 19.206C51.7463 18.2527 51.4823 17.138 51.4823 15.862C51.4823 14.5713 51.7389 13.4567 52.2523 12.518C52.7803 11.5647 53.5136 10.8387 54.4523 10.34C55.3909 9.82667 56.4616 9.57 57.6643 9.57C58.8816 9.57 59.9523 9.81933 60.8763 10.318C61.8003 10.8167 62.5116 11.5207 63.0103 12.43C63.5236 13.3247 63.7803 14.3587 63.7803 15.532ZM59.9743 14.96C59.9889 14.1533 59.7689 13.552 59.3143 13.156C58.8743 12.7453 58.3243 12.54 57.6643 12.54C56.9749 12.54 56.4029 12.7453 55.9483 13.156C55.4936 13.5667 55.2369 14.168 55.1783 14.96H59.9743ZM70.4054 9.57C71.344 9.57 72.1507 9.78267 72.8254 10.208C73.5 10.6333 73.9987 11.2127 74.3214 11.946V9.724H78.0614V21.934C78.0614 23.078 77.8414 24.1047 77.4014 25.014C76.9614 25.938 76.2867 26.6713 75.3774 27.214C74.468 27.7567 73.3387 28.028 71.9894 28.028C70.1414 28.028 68.66 27.588 67.5454 26.708C66.4454 25.8427 65.7854 24.662 65.5654 23.166H69.2834C69.4007 23.6647 69.6647 24.0533 70.0754 24.332C70.5007 24.6107 71.0507 24.75 71.7254 24.75C72.5027 24.75 73.126 24.5227 73.5954 24.068C74.0794 23.628 74.3214 22.9167 74.3214 21.934V19.778C73.9987 20.5113 73.5 21.0907 72.8254 21.516C72.1507 21.9413 71.344 22.154 70.4054 22.154C69.3934 22.154 68.484 21.9047 67.6774 21.406C66.8854 20.8927 66.2547 20.1593 65.7854 19.206C65.3307 18.2527 65.1034 17.138 65.1034 15.862C65.1034 14.5713 65.3307 13.4567 65.7854 12.518C66.2547 11.5647 66.8854 10.8387 67.6774 10.34C68.484 9.82667 69.3934 9.57 70.4054 9.57ZM71.6154 12.87C70.8087 12.87 70.156 13.134 69.6574 13.662C69.1734 14.19 68.9314 14.9233 68.9314 15.862C68.9314 16.8007 69.1734 17.534 69.6574 18.062C70.156 18.59 70.8087 18.854 71.6154 18.854C72.4074 18.854 73.0527 18.5827 73.5514 18.04C74.0647 17.4973 74.3214 16.7713 74.3214 15.862C74.3214 14.938 74.0647 14.212 73.5514 13.684C73.0527 13.1413 72.4074 12.87 71.6154 12.87ZM80.2995 6.27C80.2995 5.698 80.5048 5.22867 80.9155 4.862C81.3262 4.48067 81.8688 4.29 82.5435 4.29C83.2182 4.29 83.7608 4.48067 84.1715 4.862C84.5822 5.22867 84.7875 5.698 84.7875 6.27C84.7875 6.82733 84.5822 7.29667 84.1715 7.678C83.7608 8.04467 83.2182 8.228 82.5435 8.228C81.8688 8.228 81.3262 8.04467 80.9155 7.678C80.5048 7.29667 80.2995 6.82733 80.2995 6.27ZM84.4135 9.724V22H80.6515V9.724H84.4135ZM91.4769 9.57C93.0316 9.57 94.2709 9.95867 95.1949 10.736C96.1336 11.5133 96.7202 12.54 96.9549 13.816H93.4349C93.3322 13.3173 93.0976 12.9287 92.7309 12.65C92.3789 12.3567 91.9316 12.21 91.3889 12.21C90.9636 12.21 90.6409 12.3053 90.4209 12.496C90.2009 12.672 90.0909 12.9287 90.0909 13.266C90.0909 13.6473 90.2889 13.9333 90.6849 14.124C91.0956 14.3147 91.7336 14.5053 92.5989 14.696C93.5376 14.916 94.3076 15.1433 94.9089 15.378C95.5102 15.598 96.0309 15.9647 96.4709 16.478C96.9109 16.9913 97.1309 17.6807 97.1309 18.546C97.1309 19.25 96.9402 19.8733 96.5589 20.416C96.1776 20.9587 95.6276 21.384 94.9089 21.692C94.1902 22 93.3396 22.154 92.3569 22.154C90.6996 22.154 89.3722 21.7873 88.3749 21.054C87.3776 20.3207 86.7689 19.272 86.5489 17.908H90.1789C90.2376 18.436 90.4576 18.8393 90.8389 19.118C91.2349 19.3967 91.7409 19.536 92.3569 19.536C92.7822 19.536 93.1049 19.4407 93.3249 19.25C93.5449 19.0447 93.6549 18.7807 93.6549 18.458C93.6549 18.0327 93.4496 17.732 93.0389 17.556C92.6429 17.3653 91.9902 17.1673 91.0809 16.962C90.1716 16.7713 89.4236 16.566 88.8369 16.346C88.2502 16.126 87.7442 15.774 87.3189 15.29C86.8936 14.7913 86.6809 14.1167 86.6809 13.266C86.6809 12.166 87.0989 11.2787 87.9349 10.604C88.7709 9.91467 89.9516 9.57 91.4769 9.57ZM106.166 18.766V22H104.472C103.035 22 101.913 21.648 101.106 20.944C100.314 20.2253 99.918 19.0447 99.918 17.402V12.892H98.268V9.724H99.918V6.71H103.68V9.724H106.144V12.892H103.68V17.468C103.68 17.952 103.775 18.2893 103.966 18.48C104.171 18.6707 104.509 18.766 104.978 18.766H106.166ZM119.94 15.532C119.94 15.84 119.904 16.1773 119.83 16.544H111.316C111.36 17.468 111.595 18.1353 112.02 18.546C112.446 18.942 112.988 19.14 113.648 19.14C114.206 19.14 114.668 19.0007 115.034 18.722C115.401 18.4433 115.643 18.084 115.76 17.644H119.742C119.581 18.5093 119.229 19.2867 118.686 19.976C118.144 20.6507 117.454 21.186 116.618 21.582C115.782 21.9633 114.851 22.154 113.824 22.154C112.622 22.154 111.551 21.9047 110.612 21.406C109.688 20.8927 108.962 20.1593 108.434 19.206C107.906 18.2527 107.642 17.138 107.642 15.862C107.642 14.5713 107.899 13.4567 108.412 12.518C108.94 11.5647 109.674 10.8387 110.612 10.34C111.551 9.82667 112.622 9.57 113.824 9.57C115.042 9.57 116.112 9.81933 117.036 10.318C117.96 10.8167 118.672 11.5207 119.17 12.43C119.684 13.3247 119.94 14.3587 119.94 15.532ZM116.134 14.96C116.149 14.1533 115.929 13.552 115.474 13.156C115.034 12.7453 114.484 12.54 113.824 12.54C113.135 12.54 112.563 12.7453 112.108 13.156C111.654 13.5667 111.397 14.168 111.338 14.96H116.134ZM125.664 12.034C126.133 11.286 126.734 10.692 127.468 10.252C128.216 9.812 129.022 9.592 129.888 9.592V13.618H128.81C127.812 13.618 127.035 13.8307 126.478 14.256C125.935 14.6813 125.664 15.4 125.664 16.412V22H121.902V9.724H125.664V12.034Z" fill="#01040D"/>
</svg>
