<svg width="327" height="255" viewBox="0 0 327 255" fill="none" xmlns="http://www.w3.org/2000/svg">
<path fill-rule="evenodd" clip-rule="evenodd" d="M141.136 71.8002C112.897 68.6443 115.454 108.98 96.8754 94.4481C89.2806 60.6916 120.708 71.7631 132.747 65.4068C138.075 62.5777 136.923 59.4664 135.608 55.7165C134.706 56.2226 133.687 56.4849 132.653 56.4774C131.619 56.4698 130.604 56.1928 129.71 55.6736C128.815 55.1544 128.072 54.411 127.553 53.5169C127.034 52.6227 126.758 51.6088 126.751 50.5753C126.745 49.5417 127.008 48.5243 127.515 47.6236C128.023 46.7229 128.756 45.97 129.644 45.4394C130.532 44.9087 131.542 44.6187 132.577 44.5979C133.611 44.577 134.632 44.8262 135.541 45.3207C139.405 38.5561 151.511 32.9498 156.148 44.5336C154 45.4024 149.259 43.5609 147.052 39.5956C147.431 46.1672 139.516 50.3181 139.62 52.1374C142.95 63.2534 138.744 64.8944 141.136 71.8002Z" fill="#01221D" stroke="#01221D" stroke-width="0.22" stroke-miterlimit="22.93"/>
<path fill-rule="evenodd" clip-rule="evenodd" d="M159.573 68.0745C111.833 67.519 80.887 102.142 74.8638 144.453C71.0883 170.967 84.0765 193.829 106.901 193.666C111.003 193.666 106.292 204.879 109.779 206.878C132.41 219.883 164.335 213.07 187.337 215.966C207.224 218.461 229.93 211.522 229.751 204.857C229.625 200.361 225.983 179.454 226.473 172.011C258.799 162.413 252.316 69.1557 159.573 68.0745Z" fill="#07BFA5"/>
<path fill-rule="evenodd" clip-rule="evenodd" d="M199.021 105.872C194.064 104.617 168.783 103.778 167.569 110.371C167.472 110.891 168.828 148.237 169.179 152.603C178.57 154.214 199.006 157.139 199.882 150.828C198.632 144.762 203.918 107.104 199.021 105.872Z" fill="#01221D"/>
<path fill-rule="evenodd" clip-rule="evenodd" d="M160.69 127.365C163.314 126.401 168.474 132.999 161.636 138.677C162.728 140.533 163.242 142.682 163.111 144.842C162.981 147.001 162.211 149.07 160.903 150.774C165.161 158.246 149.792 173.525 146.502 163.065C144.706 165.075 141.987 167.548 139.906 169.476C137.634 165.815 129.205 151.984 127.271 133.843C140.155 123.077 159.716 114.731 167.484 115.089L167.565 123.637C166.876 124.9 162.427 125.886 160.69 127.365Z" fill="white"/>
<path d="M165.55 102.99C165.921 102.99 166.222 102.689 166.222 102.319C166.222 101.948 165.921 101.647 165.55 101.647C165.18 101.647 164.879 101.948 164.879 102.319C164.879 102.689 165.18 102.99 165.55 102.99Z" fill="#01221D"/>
<path d="M184.69 182.907C185.246 182.907 185.697 182.456 185.697 181.9C185.697 181.344 185.246 180.893 184.69 180.893C184.134 180.893 183.683 181.344 183.683 181.9C183.683 182.456 184.134 182.907 184.69 182.907Z" fill="#01221D"/>
<path d="M188.047 202.383C188.604 202.383 189.055 201.932 189.055 201.376C189.055 200.819 188.604 200.368 188.047 200.368C187.491 200.368 187.04 200.819 187.04 201.376C187.04 201.932 187.491 202.383 188.047 202.383Z" fill="#01221D"/>
<path fill-rule="evenodd" clip-rule="evenodd" d="M172.429 157.065C163.494 153.834 159.081 139.112 178.999 146.381C183.96 148.195 195.632 145.941 198.977 143.019C199.6 142.475 199.511 138.165 199.889 135.353C207.03 134.164 215.669 141.682 218.22 141.748C221.698 141.844 228.661 165.339 219.251 171.008C215.068 173.526 208.817 172.975 203.589 174.304C197.59 175.824 176.018 174.341 180.164 167.542C171.703 166.345 168.914 160.927 172.429 157.065Z" fill="white"/>
<path fill-rule="evenodd" clip-rule="evenodd" d="M142.564 75.1068C138.735 69.3713 140.112 66.6373 141.06 61.5333C141.624 58.5616 138.743 52.618 139.48 51.8082C141.15 49.9955 146.656 47.1129 147.002 39.8618C151.049 46.7414 157.533 44.7132 156.518 44.8544C157.391 46.4145 157.94 52.3952 158.241 52.5066C166.124 55.4115 167.907 56.6002 158.511 58.0564C158.73 61.8156 159.58 73.0637 160.016 76.3698C158.293 79.5198 150.816 80.1439 142.564 75.1068Z" fill="white"/>
<path d="M197.87 109.974C192.604 107.56 173.326 109.61 173.207 111.363C172.143 124.225 173.601 130.916 173.408 145.108M167.443 79.9122C168.407 82.1592 169.176 84.4848 169.741 86.8633C168.492 85.9275 156.807 81.5757 156.77 81.6648C152.218 93.0494 150.627 94.4753 142.244 82.3183C142.051 82.1052 141.909 81.8514 141.828 81.5757M218.889 142.613C214.084 138.447 204.817 134.934 199.714 135.484M219.915 134.741C217.743 135.053 216.516 135.157 214.404 137.526M236.716 141.276C235.229 134.518 229.554 129.127 221.514 129.929M217.58 139.516C224.839 148.873 224.415 167.662 220.145 171.279M239.424 159.931C235.586 169.296 227.405 174.784 217.327 172.905M199.186 142.992C186.9 152.505 173.006 142.813 168.164 144.529C160.452 147.269 167.294 155.965 172.828 157.518C168.097 162.055 171.638 167.053 179.886 168.212C181.939 168.501 174.739 173.752 195.505 175.601C204.735 176.418 213.288 174.301 218.561 169.348M153.854 59.965C149.593 61.7102 146.387 58.6208 143.866 53.92M149.593 78.4269C143.992 77.818 141.991 74.9959 141.642 74.2236C137.365 64.8144 143.129 65.312 139.411 53.1179C138.369 49.6795 146.766 48.7215 146.566 40.0995C146.566 38.5548 150.017 46.4342 155.915 44.9044M166.848 115.418C165.856 115.531 164.847 115.675 163.821 115.848C134.219 120.958 111.215 150.247 96.8157 154.406M157.03 82.9496C157.03 91.9652 161.79 104.553 163.858 115.871M164.84 125.369C164.512 131.77 166.082 138.127 168.268 144.499M176.368 167.32C178.778 175.831 183.62 211.091 187.643 215.814L187.718 215.072M137.432 132.803C147.986 125.228 173.713 123.817 162.028 139.219M142.981 140.905C168.521 128.644 163.375 148.331 161.21 150.611M149.184 149.052C170.953 139.16 159.224 173.618 147.518 165.85C144.134 163.622 153.587 156.812 148.864 160.859C145.45 163.778 141.969 167.358 139.455 169.637C137.343 171.553 130.969 178.957 128.039 181.334C116.317 190.847 104.432 193.892 102.334 193.892M127.02 135.127C129.013 153.99 137.931 166.838 139.835 169.905M115.729 143.036C115.03 162.53 121.345 172.586 128.559 181.468M106.804 108.132C108.619 113.004 115.499 139.583 112.94 143.779M157.774 52.3456C157.702 49.6881 157.114 47.07 156.041 44.637C152.099 34.5743 140.065 36.3121 135.379 45.803C134.46 45.2526 133.409 44.9604 132.337 44.9574C131.265 44.9544 130.212 45.2406 129.29 45.7857C128.367 46.3309 127.609 47.1148 127.096 48.0545C126.583 48.9943 126.333 50.055 126.374 51.1246C126.415 52.1942 126.744 53.2329 127.328 54.1309C127.911 55.029 128.726 55.7531 129.688 56.2266C130.649 56.7001 131.721 56.9055 132.789 56.821C133.858 56.7366 134.884 56.3654 135.759 55.7468C136.927 59.3115 137.737 62.6979 133.104 65.557C118.548 74.5207 83.6437 55.9028 88.8426 94.4159M152.062 49.531C153.192 51.6252 173.147 56.6826 159.381 57.8188C156.547 58.0564 150.731 55.7543 148.566 53.6229M158.934 68.8544C158.414 65.1412 158.421 62.0295 158.153 57.7742L158.934 68.8544ZM185.472 159.04C184.371 158.424 178.614 159.3 174.01 157.644L185.472 159.04ZM161.054 127.604C163.12 126.179 165.372 125.044 167.748 124.233L161.054 127.604Z" stroke="#01221D" stroke-width="1.42" stroke-linecap="round" stroke-linejoin="round"/>
<path d="M148.456 50.5538C148.98 50.2717 149.132 49.5364 148.795 48.9115C148.459 48.2865 147.761 48.0086 147.237 48.2906C146.714 48.5726 146.562 49.3079 146.898 49.9328C147.235 50.5578 147.932 50.8358 148.456 50.5538Z" fill="#01221D"/>
<path d="M155.313 48.5185C155.681 48.3201 155.787 47.802 155.55 47.3613C155.313 46.9205 154.822 46.7241 154.453 46.9225C154.085 47.1209 153.979 47.639 154.216 48.0797C154.453 48.5205 154.944 48.7169 155.313 48.5185Z" fill="#01221D"/>
<path d="M162.041 92.8242C162.41 92.6258 162.516 92.1076 162.279 91.6669C162.041 91.2262 161.55 91.0298 161.182 91.2282C160.813 91.4266 160.707 91.9447 160.944 92.3854C161.182 92.8261 161.673 93.0226 162.041 92.8242Z" fill="#01221D"/>
<path fill-rule="evenodd" clip-rule="evenodd" d="M186.233 117.624C186.907 118.029 187.364 118.633 187.508 119.31C187.651 119.986 187.47 120.681 187.002 121.25C186.817 121.548 186.561 121.813 186.249 122.03C185.938 122.246 185.577 122.409 185.188 122.509C184.799 122.61 184.389 122.645 183.983 122.614C183.577 122.582 183.182 122.485 182.823 122.327C182.148 121.922 181.691 121.318 181.548 120.641C181.405 119.965 181.586 119.27 182.054 118.701C182.239 118.403 182.495 118.138 182.806 117.921C183.118 117.705 183.479 117.542 183.868 117.442C184.257 117.341 184.667 117.306 185.073 117.337C185.479 117.369 185.873 117.466 186.233 117.624Z" fill="white"/>
<path fill-rule="evenodd" clip-rule="evenodd" d="M38.6761 35.4568C35.8253 31.1664 34.1147 28.6994 31.1455 24.602C25.1856 16.2784 30.0697 29.8578 30.3817 33.8479C31.2101 45.8827 31.4575 37.8595 17.6335 46.2688C9.65107 51.1171 22.0013 48.9182 23.7978 49.0147C28.101 49.2614 31.2531 44.6384 31.0595 55.4504C31.0595 57.9711 29.9837 72.7732 34.9969 63.6989C36.0727 61.7789 42.2263 53.8201 41.6131 51.6105C41.7206 51.6105 68.7985 64.4819 48.0679 44.7135C45.6366 42.386 45.2815 41.9998 48.4767 39.2003C51.0478 36.9371 63.2689 29.2678 59.7618 28.9353C51.9838 28.1952 39.9348 36.4007 38.6761 35.4568Z" fill="#FF6264"/>
<path d="M277.058 25.6256C279.416 22.6251 281.308 23.997 281.958 25.058C288.798 27.9434 302.372 34.4887 301.958 37.5861C301.44 41.4579 293.627 67.8646 290.249 67.209C286.871 66.5533 258.221 51.6453 258.876 48.2675C259.532 44.8898 274.11 29.3762 277.058 25.6256Z" fill="#FFBD59"/>
<path d="M266.488 50.2348C270.904 43.927 280.492 30.7816 283.52 28.6621" stroke="#01221D" stroke-width="1.42" stroke-linecap="round"/>
<path d="M275.572 55.1551C279.483 48.8473 287.608 35.3233 288.819 31.6899M286.548 60.8322C289.828 56.2905 296.388 44.8607 296.388 35.4746" stroke="#01221D" stroke-width="1.42" stroke-linecap="round"/>
<path d="M256.734 74.957C250.796 55.9521 263.531 56.9986 270.64 59.8975L275.378 62.5695C290.381 74.3611 277.624 80.4917 269.37 82.083L256.734 74.957Z" fill="#FFBD59"/>
<path d="M270.64 59.8975C263.53 56.9986 250.796 55.9521 256.734 74.957M269.37 82.083C272.494 81.4807 276.263 80.2282 278.928 78.2646" stroke="#01221D" stroke-width="1.42" stroke-linecap="round"/>
<path d="M269.497 56.7544C269.751 59.2572 271.939 63.7945 278.659 61.921L269.497 56.7544Z" fill="#FFBD59"/>
<path d="M269.497 56.7544C269.751 59.2572 271.939 63.7945 278.659 61.921L269.497 56.7544Z" fill="#FFBD59" stroke="#01221D" stroke-width="1.42"/>
<path d="M277.058 25.6256C274.11 29.3762 259.532 44.8898 258.876 48.2675C258.221 51.6453 286.871 66.5533 290.249 67.209C293.627 67.8646 301.44 41.4579 301.958 37.5861C302.17 36.0016 298.721 33.5149 294.386 31.0774" stroke="#01221D" stroke-width="1.42" stroke-linecap="round"/>
<path d="M282.637 63.8101C282.391 64.2455 282.146 64.681 281.9 65.1165C281.628 65.5988 281.535 66.1032 281.324 66.6043C281.016 67.3349 280.748 68.0898 280.544 68.8541C280.393 69.4193 280.023 69.9349 279.738 70.4407C279.539 70.7932 279.264 71.0694 279.024 71.3871C278.909 71.5397 278.7 71.7834 278.553 71.8972C278.372 72.0373 278.269 72.3388 278.158 72.5366C278.079 72.6756 277.992 72.8128 277.921 72.9559C277.849 73.1018 277.88 73.3385 277.698 73.2725" stroke="#01221D" stroke-width="1.4" stroke-linecap="round"/>
<path d="M277.551 73.4692C277.19 73.5743 276.847 73.7318 276.516 73.9038C276.358 73.9853 276.267 74.0648 276.181 74.2167C276.145 74.2816 276.175 74.3927 276.192 74.4608C276.227 74.6073 276.322 74.7194 276.415 74.8337C276.511 74.9523 276.639 75.0096 276.771 75.0839C277.009 75.2179 277.234 75.3193 277.509 75.3377C277.817 75.3583 278.145 75.2175 278.297 74.9481C278.434 74.7058 278.378 74.2707 278.227 74.0379C278.076 73.8067 277.896 73.6232 277.715 73.4234" stroke="#01221D" stroke-width="1.4" stroke-linecap="round"/>
<path d="M23.7971 190.62C27.0828 183.774 33.4111 184.093 38.0097 185.817C40.4074 186.715 42.4851 188.395 43.7587 190.617C49.2369 200.172 38.2614 207.438 33.0685 207.838C27.3292 208.279 18.4992 201.657 23.7971 190.62Z" fill="#F5B3A5"/>
<path d="M25.5627 189.737C28.8484 182.892 35.1768 183.211 39.7753 184.934C42.173 185.833 44.2507 187.512 45.5243 189.734C51.0025 199.289 40.0271 206.555 34.8342 206.955C29.0948 207.396 20.2648 200.774 25.5627 189.737Z" stroke="#01221D" stroke-width="1.42"/>
<path d="M49.7082 208.831C52.9939 201.986 59.3223 202.305 63.9208 204.028C66.3185 204.927 68.3962 206.607 69.6698 208.828C75.148 218.383 64.1726 225.65 58.9797 226.049C53.2403 226.491 44.4103 219.868 49.7082 208.831Z" fill="#F5B3A5"/>
<path d="M51.4738 207.948C54.7595 201.103 61.0879 201.422 65.6864 203.145C68.0842 204.044 70.1619 205.724 71.4354 207.945C76.9136 217.501 65.9382 224.767 60.7453 225.166C55.0059 225.608 46.176 218.986 51.4738 207.948Z" stroke="#01221D" stroke-width="1.42"/>
<path d="M45.8711 199.891C48.2257 199.744 52.935 200.598 52.9349 205.189" stroke="#01221D" stroke-width="1.42" stroke-linecap="round"/>
<path d="M27.3285 186.646L24.2383 184.439" stroke="#01221D" stroke-width="1.42" stroke-linecap="round"/>
<path d="M75.0092 219.317L71.9189 217.109" stroke="#01221D" stroke-width="1.42" stroke-linecap="round"/>
</svg>
