<svg width="167" height="29" viewBox="0 0 167 29" fill="none" xmlns="http://www.w3.org/2000/svg">
<rect x="44" y="18" width="80" height="8" fill="#F5B3A5"/>
<path d="M58.4623 17.622C58.4623 18.4433 58.2496 19.1987 57.8243 19.888C57.4136 20.5773 56.7976 21.1273 55.9763 21.538C55.1696 21.9487 54.1869 22.154 53.0283 22.154C51.2829 22.154 49.8456 21.7287 48.7163 20.878C47.5869 20.0273 46.9709 18.8393 46.8683 17.314H50.8723C50.9309 17.9007 51.1363 18.3627 51.4883 18.7C51.8549 19.0373 52.3169 19.206 52.8743 19.206C53.3583 19.206 53.7396 19.074 54.0183 18.81C54.2969 18.546 54.4363 18.194 54.4363 17.754C54.4363 17.358 54.3043 17.028 54.0403 16.764C53.7909 16.5 53.4756 16.2873 53.0943 16.126C52.7129 15.95 52.1849 15.7447 51.5103 15.51C50.5276 15.1727 49.7209 14.85 49.0903 14.542C48.4743 14.2193 47.9389 13.75 47.4843 13.134C47.0443 12.5033 46.8243 11.6893 46.8243 10.692C46.8243 9.768 47.0589 8.96867 47.5283 8.294C47.9976 7.61933 48.6429 7.106 49.4643 6.754C50.3003 6.38733 51.2536 6.204 52.3243 6.204C54.0549 6.204 55.4263 6.61467 56.4383 7.436C57.4649 8.25733 58.0443 9.38667 58.1763 10.824H54.1063C54.0329 10.3107 53.8423 9.90733 53.5343 9.614C53.2409 9.306 52.8376 9.152 52.3243 9.152C51.8843 9.152 51.5249 9.26933 51.2463 9.504C50.9823 9.73867 50.8503 10.0833 50.8503 10.538C50.8503 10.9047 50.9676 11.22 51.2023 11.484C51.4516 11.7333 51.7596 11.9387 52.1263 12.1C52.4929 12.2613 53.0209 12.4667 53.7103 12.716C54.7076 13.0533 55.5216 13.3907 56.1523 13.728C56.7829 14.0507 57.3256 14.5273 57.7803 15.158C58.2349 15.7887 58.4623 16.61 58.4623 17.622ZM60.1901 6.27C60.1901 5.698 60.3955 5.22867 60.8061 4.862C61.2168 4.48067 61.7595 4.29 62.4341 4.29C63.1088 4.29 63.6515 4.48067 64.0621 4.862C64.4728 5.22867 64.6781 5.698 64.6781 6.27C64.6781 6.82733 64.4728 7.29667 64.0621 7.678C63.6515 8.04467 63.1088 8.228 62.4341 8.228C61.7595 8.228 61.2168 8.04467 60.8061 7.678C60.3955 7.29667 60.1901 6.82733 60.1901 6.27ZM64.3041 9.724V22H60.5421V9.724H64.3041ZM71.5655 9.57C72.5042 9.57 73.3108 9.78267 73.9855 10.208C74.6602 10.6333 75.1588 11.2127 75.4815 11.946V9.724H79.2215V21.934C79.2215 23.078 79.0015 24.1047 78.5615 25.014C78.1215 25.938 77.4468 26.6713 76.5375 27.214C75.6282 27.7567 74.4988 28.028 73.1495 28.028C71.3015 28.028 69.8202 27.588 68.7055 26.708C67.6055 25.8427 66.9455 24.662 66.7255 23.166H70.4435C70.5608 23.6647 70.8248 24.0533 71.2355 24.332C71.6608 24.6107 72.2108 24.75 72.8855 24.75C73.6628 24.75 74.2862 24.5227 74.7555 24.068C75.2395 23.628 75.4815 22.9167 75.4815 21.934V19.778C75.1588 20.5113 74.6602 21.0907 73.9855 21.516C73.3108 21.9413 72.5042 22.154 71.5655 22.154C70.5535 22.154 69.6442 21.9047 68.8375 21.406C68.0455 20.8927 67.4148 20.1593 66.9455 19.206C66.4908 18.2527 66.2635 17.138 66.2635 15.862C66.2635 14.5713 66.4908 13.4567 66.9455 12.518C67.4148 11.5647 68.0455 10.8387 68.8375 10.34C69.6442 9.82667 70.5535 9.57 71.5655 9.57ZM72.7755 12.87C71.9688 12.87 71.3162 13.134 70.8175 13.662C70.3335 14.19 70.0915 14.9233 70.0915 15.862C70.0915 16.8007 70.3335 17.534 70.8175 18.062C71.3162 18.59 71.9688 18.854 72.7755 18.854C73.5675 18.854 74.2128 18.5827 74.7115 18.04C75.2248 17.4973 75.4815 16.7713 75.4815 15.862C75.4815 14.938 75.2248 14.212 74.7115 13.684C74.2128 13.1413 73.5675 12.87 72.7755 12.87ZM89.5997 9.592C91.0077 9.592 92.1223 10.0613 92.9437 11C93.7797 11.9387 94.1977 13.2293 94.1977 14.872V22H90.4357V15.312C90.4357 14.4907 90.2157 13.8527 89.7757 13.398C89.3503 12.9287 88.7783 12.694 88.0597 12.694C87.297 12.694 86.6883 12.936 86.2337 13.42C85.7937 13.904 85.5737 14.5933 85.5737 15.488V22H81.8117V9.724H85.5737V11.968C85.9257 11.2347 86.4463 10.6553 87.1357 10.23C87.8397 9.80467 88.661 9.592 89.5997 9.592ZM100.731 6.27C100.731 5.698 100.936 5.22867 101.347 4.862C101.758 4.48067 102.3 4.29 102.975 4.29C103.65 4.29 104.192 4.48067 104.603 4.862C105.014 5.22867 105.219 5.698 105.219 6.27C105.219 6.82733 105.014 7.29667 104.603 7.678C104.192 8.04467 103.65 8.228 102.975 8.228C102.3 8.228 101.758 8.04467 101.347 7.678C100.936 7.29667 100.731 6.82733 100.731 6.27ZM104.845 9.724V22H101.083V9.724H104.845ZM115.231 9.592C116.639 9.592 117.753 10.0613 118.575 11C119.411 11.9387 119.829 13.2293 119.829 14.872V22H116.067V15.312C116.067 14.4907 115.847 13.8527 115.407 13.398C114.981 12.9287 114.409 12.694 113.691 12.694C112.928 12.694 112.319 12.936 111.865 13.42C111.425 13.904 111.205 14.5933 111.205 15.488V22H107.443V9.724H111.205V11.968C111.557 11.2347 112.077 10.6553 112.767 10.23C113.471 9.80467 114.292 9.592 115.231 9.592Z" fill="#01221D"/>
</svg>
