<svg width="433" height="337" viewBox="0 0 433 337" fill="none" xmlns="http://www.w3.org/2000/svg">
<path d="M73.1095 60.0692C27.8544 76.8632 38.9442 213.788 50.1459 280.152C50.1459 281.054 51.9383 282.86 59.1076 282.86C68.0693 282.86 87.112 264.576 120.157 273.379C146.593 280.422 172.992 280.829 182.887 280.152C184.941 250.13 187.816 175.325 182.887 116.275C176.726 42.4626 129.678 39.0767 73.1095 60.0692Z" fill="#F4F5F6"/>
<path d="M168.792 137.215C166.341 137.215 163.862 137.843 164.785 141.248C164.88 141.599 166.56 142.815 166.988 143.073C167.676 143.487 169.171 144.164 169.891 142.835C170.344 141.999 170.99 141.358 170.99 140.304C170.99 139.113 169.842 137.215 168.989 137.215C168.084 137.215 166.191 141.006 167.328 141.076C168.468 141.147 169.525 140.978 169.525 139.532" stroke="#01221D" stroke-width="4" stroke-linecap="round"/>
<path d="M50.1459 280.216C38.9442 213.834 27.8544 76.871 73.1095 60.0723C129.678 39.074 176.726 42.4608 182.887 116.294C187.816 175.36 184.941 250.186 182.887 280.216" stroke="#01221D" stroke-width="1.42"/>
<path d="M195.165 81.363L202.926 81.0528" stroke="#01040D" stroke-width="1.42" stroke-linecap="round" stroke-linejoin="round"/>
<path d="M179.402 53.9748L185.161 47.5838" stroke="#01040D" stroke-width="1.42" stroke-linecap="round" stroke-linejoin="round"/>
<path d="M188.797 68.8557L195.223 64.4917" stroke="#01040D" stroke-width="1.42" stroke-linecap="round" stroke-linejoin="round"/>
<path fill-rule="evenodd" clip-rule="evenodd" d="M362.99 35C365.21 44.83 359.57 47.71 354.56 48.73C363.92 49 365 50.34 367.56 60.25C366.5 52.83 366.56 47.41 376.4 44.03C374.45 44.41 364.77 48.76 362.99 35Z" stroke="#01040D" stroke-width="1.42" stroke-linecap="round" stroke-linejoin="round"/>
<path fill-rule="evenodd" clip-rule="evenodd" d="M203.14 117.1C205.411 73.2862 229.275 80.8449 249.17 78.8515C264.81 77.2527 260.484 67.3262 265.342 58.6139C265.745 57.8858 266.233 57.2067 266.795 56.5902C265.799 55.682 265.046 54.5433 264.604 53.2763C264.162 52.0093 264.045 50.6537 264.264 49.331C264.482 48.0083 265.03 46.76 265.856 45.6981C266.683 44.6362 267.763 43.7939 269 43.2469C270.237 42.6998 271.591 42.4651 272.943 42.5639C274.294 42.6626 275.599 43.0916 276.741 43.8125C277.883 44.5334 278.827 45.5235 279.487 46.694C280.147 47.8645 280.502 49.1788 280.522 50.5189C287.928 50.0433 295.119 53.5546 295.242 64.1793C292.06 64.1793 286.885 59.555 286.036 53.4331C283.253 61.9734 271.04 63.3596 270.263 65.7173C269.669 71.6166 268.646 83.9311 262.448 93.1898C244.312 91.1964 233.561 106.779 203.14 117.1Z" fill="#01040D"/>
<path fill-rule="evenodd" clip-rule="evenodd" d="M263.116 91.4504C262.678 89.1923 266.303 81.9927 268.207 78.9347C270.407 75.3805 269.684 66.4696 271.018 65.7709C274.072 64.2722 282.402 63.29 286.434 54.2374C288.145 64.9507 297.299 65.4975 295.986 65.2038C296.322 67.6138 294.051 75.4817 294.377 75.7652C302.89 83.2787 304.56 85.6583 291.974 82.9547C290.385 87.8354 289.234 91.177 288.165 95.6021C281.73 101.597 263.91 95.3996 263.116 91.4504Z" fill="white"/>
<path fill-rule="evenodd" clip-rule="evenodd" d="M276.836 93.5309C211.807 82.9493 171.971 139.622 168.236 196.772C166.261 227.011 180.515 253.75 203.876 261.218C203.851 267.725 204.35 274.224 205.37 280.651C207.151 297.562 298.059 280.01 330.108 283.917C357.808 287.295 386.102 255.266 384.342 246.394C375.93 203.986 380.515 110.441 276.836 93.5309Z" fill="#07BFA5"/>
<path d="M263.079 87.8618C264.753 81.6839 269.048 80.4441 270.059 66.6685C270.436 61.5609 281.65 64.5491 285.66 53.02C286.375 50.9006 286.936 63.2245 295.242 64.2206" stroke="#01040D" stroke-width="2.13" stroke-linecap="round" stroke-linejoin="round"/>
<path d="M281.035 66.7677C280.913 65.8 281.472 64.933 282.283 64.8313C283.095 64.7295 283.85 65.4315 283.972 66.3993C284.093 67.367 283.534 68.2339 282.723 68.3357C281.912 68.4374 281.156 67.7354 281.035 66.7677Z" fill="#01040D"/>
<path d="M291.301 68.0433C291.216 67.3609 291.609 66.7496 292.179 66.6779C292.75 66.6063 293.282 67.1014 293.367 67.7838C293.453 68.4662 293.06 69.0775 292.49 69.1492C291.919 69.2209 291.387 68.7257 291.301 68.0433Z" fill="#01040D"/>
<path d="M276.364 120.479C275.845 120.23 275.667 119.525 275.965 118.906C276.263 118.286 276.924 117.985 277.443 118.234C277.961 118.483 278.14 119.188 277.842 119.808C277.544 120.427 276.882 120.728 276.364 120.479Z" fill="#01221D"/>
<path d="M283.546 139.029C282.739 139.029 282.084 138.375 282.084 137.568C282.084 136.76 282.739 136.106 283.546 136.106C284.354 136.106 285.008 136.76 285.008 137.568C285.008 138.375 284.354 139.029 283.546 139.029Z" fill="#01221D"/>
<path d="M404.55 188.822C415.071 188.343 414.513 198.585 412.919 203.765C412.054 210.342 423.678 263.54 411.125 266.529C398.572 269.518 319.668 268.92 316.679 263.54C313.691 258.16 317.875 194.202 325.646 188.822C333.417 183.442 391.399 189.419 404.55 188.822Z" fill="#F5B3A5"/>
<path d="M404.55 188.822C415.07 188.343 416.301 199.298 414.707 204.478C413.843 211.055 423.678 263.54 411.125 266.529C398.572 269.518 319.668 268.92 316.679 263.54C313.69 258.16 310.711 196.033 318.482 190.653C326.253 185.273 391.399 189.419 404.55 188.822Z" fill="#F5B3A5" stroke="#01221D" stroke-width="1.42"/>
<path d="M408.797 177.225C412.145 180.094 411.786 187.985 411.188 191.571C383.093 191.571 320.47 192.415 319.035 189.547C317.6 186.679 321.93 178.512 325.118 175.721C331.694 172.733 404.613 173.639 408.797 177.225Z" fill="#F5B3A5"/>
<path d="M409.334 177.462C412.681 180.331 412.323 188.222 411.725 191.808C383.63 191.808 319.917 192.415 318.482 189.547" stroke="#01221D" stroke-width="1.42" stroke-linecap="round" stroke-linejoin="round"/>
<path d="M377.65 190.614C377.65 187.48 376.181 180.949 374.774 176.608C374.277 175.078 372.82 174.115 371.211 174.115H360.587C358.905 174.115 357.392 175.164 356.938 176.784C355.533 181.795 354.674 187.929 354.339 190.614C353.94 199.381 353.98 216.915 357.327 216.915C361.512 216.915 365.098 208.547 365.696 209.144C366.294 209.742 374.661 217.513 377.052 216.915C379.443 216.317 377.65 195.396 377.65 190.614Z" fill="#FF6264"/>
<path fill-rule="evenodd" clip-rule="evenodd" d="M324.293 245.163C328.081 246.292 331.119 261.153 318.486 259.444C321.66 262.162 323.793 273.435 297.091 267.379C287.726 265.01 275.686 262.692 264.541 263.611C265.041 257.835 266.404 237.048 279.443 216.101C294.719 213.873 309.464 215.362 316.509 218.929C320.671 220.588 320.12 224.926 318.392 227.064C334.376 232.771 332.128 244.723 324.293 245.163Z" fill="white"/>
<path d="M285.393 82.895C278.996 83.0383 276.388 77.4683 275.474 70.2088M294.982 100.926C295.912 104.165 296.561 107.477 296.923 110.827C295.373 109.332 280.125 101.356 280.064 101.469C271.85 116.254 269.437 117.933 260.063 99.8611C259.829 99.5219 259.677 99.1326 259.622 98.7245M279.859 216.474C266.223 238.815 265.228 260.348 264.745 265.293M292.528 236.153C339.142 240.003 328.547 264.259 318.289 260.522M292.724 223.917C313.977 219.361 341.566 236.204 324.84 245.593M292.508 250.262C326.668 253.406 329.655 277.457 297.108 268.693C287.775 266.194 275.711 263.696 264.56 264.597C260.638 264.935 247.424 267.72 242.229 267.884C221.386 268.508 205.79 261.925 203.479 260.174M279.355 102.38C279.355 118.762 300.362 157.22 299.777 174.698C299.223 191.388 311.297 203.583 316.267 218.276M337.161 148.845C339.666 155.561 342.262 164.661 343.921 174.698M220.113 144.749C222.618 151.466 232.115 188.111 228.583 193.896M318.443 226.334C323.29 217.119 305.548 212.357 292.169 215.511C287.805 216.535 283.288 215.583 279.54 215.644C261.203 215.921 241.099 216.494 230.565 212.419M260.843 215.736C243.717 236.511 242.218 252.802 242.68 268.57M294.192 75.0416C295.426 71.5861 295.973 67.9241 295.804 64.2599C295.804 54.369 288.545 49.4031 280.546 50.0584C280.435 48.7134 279.992 47.4167 279.257 46.2836C278.522 45.1505 277.517 44.2161 276.333 43.5634C275.148 42.9108 273.82 42.5601 272.467 42.5426C271.114 42.525 269.777 42.8412 268.576 43.463C267.375 44.0847 266.347 44.9928 265.582 46.1065C264.818 47.2202 264.341 48.505 264.195 49.8466C264.048 51.1883 264.237 52.5452 264.743 53.7968C265.249 55.0485 266.057 56.156 267.096 57.0209C260.73 64.1882 265.299 76.5672 252.137 79.0041C230.021 83.0998 202.442 71.2122 196.148 107.602C196.032 108.284 195.926 108.967 195.83 109.65M288.237 68.591C288.647 71.847 311.852 88.25 293.524 82.9257C289.756 81.8199 283.411 75.9836 281.696 72.1542M287.939 94.3013C289.14 89.1818 290.188 87.82 291.954 82.209L287.939 94.3013Z" stroke="#01221D" stroke-width="1.42" stroke-linecap="round" stroke-linejoin="round"/>
</svg>
