<svg width="244" height="89" viewBox="0 0 244 89" fill="none" xmlns="http://www.w3.org/2000/svg">
<path d="M39.8 1.72L33.04 30H24.56L20.04 11.08L15.48 30H7L0.24 1.72H7.68L11.32 22.2L16.28 1.72H23.76L28.72 22.2L32.4 1.72H39.8ZM64.5913 18.24C64.5913 18.8 64.5246 19.4133 64.3913 20.08H48.9113C48.9913 21.76 49.4179 22.9733 50.1913 23.72C50.9646 24.44 51.9513 24.8 53.1513 24.8C54.1646 24.8 55.0046 24.5467 55.6713 24.04C56.3379 23.5333 56.7779 22.88 56.9913 22.08H64.2313C63.9379 23.6533 63.2979 25.0667 62.3113 26.32C61.3246 27.5467 60.0713 28.52 58.5513 29.24C57.0313 29.9333 55.3379 30.28 53.4713 30.28C51.2846 30.28 49.3379 29.8267 47.6313 28.92C45.9513 27.9867 44.6313 26.6533 43.6712 24.92C42.7113 23.1867 42.2313 21.16 42.2313 18.84C42.2313 16.4933 42.6979 14.4667 43.6313 12.76C44.5913 11.0267 45.9246 9.70667 47.6313 8.8C49.3379 7.86667 51.2846 7.4 53.4713 7.4C55.6846 7.4 57.6313 7.85333 59.3113 8.76C60.9913 9.66667 62.2846 10.9467 63.1913 12.6C64.1246 14.2267 64.5913 16.1067 64.5913 18.24ZM57.6713 17.2C57.6979 15.7333 57.2979 14.64 56.4713 13.92C55.6713 13.1733 54.6713 12.8 53.4713 12.8C52.2179 12.8 51.1779 13.1733 50.3513 13.92C49.5246 14.6667 49.0579 15.76 48.9513 17.2H57.6713ZM74.9969 0.4V30H68.1569V0.4H74.9969ZM89.7994 7.4C92.6794 7.4 95.0927 8.2 97.0394 9.8C98.986 11.3733 100.213 13.5467 100.719 16.32H93.4794C93.266 15.36 92.826 14.6133 92.1594 14.08C91.4927 13.5467 90.6527 13.28 89.6394 13.28C88.4394 13.28 87.4527 13.76 86.6794 14.72C85.906 15.6533 85.5194 17.0267 85.5194 18.84C85.5194 20.6533 85.906 22.04 86.6794 23C87.4527 23.9333 88.4394 24.4 89.6394 24.4C90.6527 24.4 91.4927 24.1333 92.1594 23.6C92.826 23.0667 93.266 22.32 93.4794 21.36H100.719C100.213 24.1333 98.986 26.32 97.0394 27.92C95.0927 29.4933 92.6794 30.28 89.7994 30.28C87.6127 30.28 85.666 29.8267 83.9594 28.92C82.2794 27.9867 80.9594 26.6533 79.9994 24.92C79.0394 23.1867 78.5594 21.16 78.5594 18.84C78.5594 16.4933 79.026 14.4667 79.9594 12.76C80.9194 11.0267 82.2527 9.70667 83.9594 8.8C85.666 7.86667 87.6127 7.4 89.7994 7.4ZM114.73 7.4C116.943 7.4 118.916 7.86667 120.65 8.8C122.41 9.70667 123.783 11.0267 124.77 12.76C125.783 14.4933 126.29 16.52 126.29 18.84C126.29 21.16 125.783 23.1867 124.77 24.92C123.783 26.6533 122.41 27.9867 120.65 28.92C118.916 29.8267 116.943 30.28 114.73 30.28C112.516 30.28 110.53 29.8267 108.77 28.92C107.01 27.9867 105.623 26.6533 104.61 24.92C103.623 23.1867 103.13 21.16 103.13 18.84C103.13 16.52 103.623 14.4933 104.61 12.76C105.623 11.0267 107.01 9.70667 108.77 8.8C110.53 7.86667 112.516 7.4 114.73 7.4ZM114.73 13.32C113.423 13.32 112.316 13.8 111.41 14.76C110.53 15.6933 110.09 17.0533 110.09 18.84C110.09 20.6267 110.53 21.9867 111.41 22.92C112.316 23.8533 113.423 24.32 114.73 24.32C116.036 24.32 117.13 23.8533 118.01 22.92C118.89 21.9867 119.33 20.6267 119.33 18.84C119.33 17.0533 118.89 15.6933 118.01 14.76C117.13 13.8 116.036 13.32 114.73 13.32ZM158.757 7.44C161.503 7.44 163.663 8.29333 165.237 10C166.81 11.68 167.597 14.0267 167.597 17.04V30H160.797V17.84C160.797 16.4267 160.41 15.3333 159.637 14.56C158.89 13.76 157.863 13.36 156.557 13.36C155.197 13.36 154.117 13.7867 153.317 14.64C152.543 15.4667 152.157 16.64 152.157 18.16V30H145.317V17.84C145.317 16.4267 144.943 15.3333 144.197 14.56C143.45 13.76 142.423 13.36 141.117 13.36C139.757 13.36 138.677 13.7733 137.877 14.6C137.077 15.4267 136.677 16.6133 136.677 18.16V30H129.837V7.68H136.677V11.48C137.263 10.2267 138.157 9.24 139.357 8.52C140.583 7.8 142.01 7.44 143.637 7.44C145.343 7.44 146.85 7.84 148.157 8.64C149.463 9.41333 150.45 10.5333 151.117 12C151.89 10.6133 152.943 9.50667 154.277 8.68C155.637 7.85333 157.13 7.44 158.757 7.44ZM193.341 18.24C193.341 18.8 193.275 19.4133 193.141 20.08H177.661C177.741 21.76 178.168 22.9733 178.941 23.72C179.715 24.44 180.701 24.8 181.901 24.8C182.915 24.8 183.755 24.5467 184.421 24.04C185.088 23.5333 185.528 22.88 185.741 22.08H192.981C192.688 23.6533 192.048 25.0667 191.061 26.32C190.075 27.5467 188.821 28.52 187.301 29.24C185.781 29.9333 184.088 30.28 182.221 30.28C180.035 30.28 178.088 29.8267 176.381 28.92C174.701 27.9867 173.381 26.6533 172.421 24.92C171.461 23.1867 170.981 21.16 170.981 18.84C170.981 16.4933 171.448 14.4667 172.381 12.76C173.341 11.0267 174.675 9.70667 176.381 8.8C178.088 7.86667 180.035 7.4 182.221 7.4C184.435 7.4 186.381 7.85333 188.061 8.76C189.741 9.66667 191.035 10.9467 191.941 12.6C192.875 14.2267 193.341 16.1067 193.341 18.24ZM186.421 17.2C186.448 15.7333 186.048 14.64 185.221 13.92C184.421 13.1733 183.421 12.8 182.221 12.8C180.968 12.8 179.928 13.1733 179.101 13.92C178.275 14.6667 177.808 15.76 177.701 17.2H186.421ZM217.555 24.12V30H214.475C211.861 30 209.821 29.36 208.355 28.08C206.915 26.7733 206.195 24.6267 206.195 21.64V13.44H203.195V7.68H206.195V2.2H213.035V7.68H217.515V13.44H213.035V21.76C213.035 22.64 213.208 23.2533 213.555 23.6C213.928 23.9467 214.541 24.12 215.395 24.12H217.555ZM231.839 7.4C234.052 7.4 236.026 7.86667 237.759 8.8C239.519 9.70667 240.892 11.0267 241.879 12.76C242.892 14.4933 243.399 16.52 243.399 18.84C243.399 21.16 242.892 23.1867 241.879 24.92C240.892 26.6533 239.519 27.9867 237.759 28.92C236.026 29.8267 234.052 30.28 231.839 30.28C229.626 30.28 227.639 29.8267 225.879 28.92C224.119 27.9867 222.732 26.6533 221.719 24.92C220.732 23.1867 220.239 21.16 220.239 18.84C220.239 16.52 220.732 14.4933 221.719 12.76C222.732 11.0267 224.119 9.70667 225.879 8.8C227.639 7.86667 229.626 7.4 231.839 7.4ZM231.839 13.32C230.532 13.32 229.426 13.8 228.519 14.76C227.639 15.6933 227.199 17.0533 227.199 18.84C227.199 20.6267 227.639 21.9867 228.519 22.92C229.426 23.8533 230.532 24.32 231.839 24.32C233.146 24.32 234.239 23.8533 235.119 22.92C235.999 21.9867 236.439 20.6267 236.439 18.84C236.439 17.0533 235.999 15.6933 235.119 14.76C234.239 13.8 233.146 13.32 231.839 13.32ZM21.68 70.04C21.68 71.5333 21.2933 72.9067 20.52 74.16C19.7733 75.4133 18.6533 76.4133 17.16 77.16C15.6933 77.9067 13.9067 78.28 11.8 78.28C8.62667 78.28 6.01333 77.5067 3.96 75.96C1.90667 74.4133 0.786667 72.2533 0.6 69.48H7.88C7.98667 70.5467 8.36 71.3867 9 72C9.66667 72.6133 10.5067 72.92 11.52 72.92C12.4 72.92 13.0933 72.68 13.6 72.2C14.1067 71.72 14.36 71.08 14.36 70.28C14.36 69.56 14.12 68.96 13.64 68.48C13.1867 68 12.6133 67.6133 11.92 67.32C11.2267 67 10.2667 66.6267 9.04 66.2C7.25333 65.5867 5.78667 65 4.64 64.44C3.52 63.8533 2.54667 63 1.72 61.88C0.92 60.7333 0.52 59.2533 0.52 57.44C0.52 55.76 0.946667 54.3067 1.8 53.08C2.65333 51.8533 3.82667 50.92 5.32 50.28C6.84 49.6133 8.57333 49.28 10.52 49.28C13.6667 49.28 16.16 50.0267 18 51.52C19.8667 53.0133 20.92 55.0667 21.16 57.68H13.76C13.6267 56.7467 13.28 56.0133 12.72 55.48C12.1867 54.92 11.4533 54.64 10.52 54.64C9.72 54.64 9.06667 54.8533 8.56 55.28C8.08 55.7067 7.84 56.3333 7.84 57.16C7.84 57.8267 8.05333 58.4 8.48 58.88C8.93333 59.3333 9.49333 59.7067 10.16 60C10.8267 60.2933 11.7867 60.6667 13.04 61.12C14.8533 61.7333 16.3333 62.3467 17.48 62.96C18.6267 63.5467 19.6133 64.4133 20.44 65.56C21.2667 66.7067 21.68 68.2 21.68 70.04ZM39.6216 55.44C42.1816 55.44 44.2082 56.2933 45.7016 58C47.2216 59.7067 47.9816 62.0533 47.9816 65.04V78H41.1416V65.84C41.1416 64.3467 40.7416 63.1867 39.9416 62.36C39.1682 61.5067 38.1282 61.08 36.8216 61.08C35.4349 61.08 34.3282 61.52 33.5016 62.4C32.7016 63.28 32.3016 64.5333 32.3016 66.16V78H25.4616V48.4H32.3016V59.76C32.9416 58.4267 33.8882 57.3733 35.1416 56.6C36.4216 55.8267 37.9149 55.44 39.6216 55.44ZM62.9328 55.4C65.1461 55.4 67.1195 55.8667 68.8528 56.8C70.6128 57.7067 71.9861 59.0267 72.9728 60.76C73.9861 62.4933 74.4928 64.52 74.4928 66.84C74.4928 69.16 73.9861 71.1867 72.9728 72.92C71.9861 74.6533 70.6128 75.9867 68.8528 76.92C67.1195 77.8267 65.1461 78.28 62.9328 78.28C60.7195 78.28 58.7328 77.8267 56.9728 76.92C55.2128 75.9867 53.8261 74.6533 52.8128 72.92C51.8261 71.1867 51.3328 69.16 51.3328 66.84C51.3328 64.52 51.8261 62.4933 52.8128 60.76C53.8261 59.0267 55.2128 57.7067 56.9728 56.8C58.7328 55.8667 60.7195 55.4 62.9328 55.4ZM62.9328 61.32C61.6261 61.32 60.5195 61.8 59.6128 62.76C58.7328 63.6933 58.2928 65.0533 58.2928 66.84C58.2928 68.6267 58.7328 69.9867 59.6128 70.92C60.5195 71.8533 61.6261 72.32 62.9328 72.32C64.2395 72.32 65.3328 71.8533 66.2128 70.92C67.0928 69.9867 67.5328 68.6267 67.5328 66.84C67.5328 65.0533 67.0928 63.6933 66.2128 62.76C65.3328 61.8 64.2395 61.32 62.9328 61.32ZM91.9597 55.4C93.7997 55.4 95.4397 55.8667 96.8797 56.8C98.3464 57.7067 99.493 59.0267 100.32 60.76C101.173 62.4667 101.6 64.4933 101.6 66.84C101.6 69.16 101.173 71.1867 100.32 72.92C99.493 74.6533 98.3464 75.9867 96.8797 76.92C95.4397 77.8267 93.7997 78.28 91.9597 78.28C90.253 78.28 88.7864 77.8933 87.5597 77.12C86.333 76.3467 85.4397 75.2933 84.8797 73.96V88.64H78.0397V55.68H84.8797V59.72C85.4397 58.3867 86.333 57.3333 87.5597 56.56C88.7864 55.7867 90.253 55.4 91.9597 55.4ZM89.7597 61.4C88.3197 61.4 87.133 61.8933 86.1997 62.88C85.293 63.84 84.8397 65.16 84.8397 66.84C84.8397 68.4933 85.293 69.8133 86.1997 70.8C87.133 71.7867 88.3197 72.28 89.7597 72.28C91.2264 72.28 92.3997 71.8 93.2797 70.84C94.1864 69.88 94.6397 68.5467 94.6397 66.84C94.6397 65.1333 94.1864 63.8 93.2797 62.84C92.3997 61.88 91.2264 61.4 89.7597 61.4Z" fill="#01040D"/>
<path d="M119.069 55.4C120.909 55.4 122.549 55.8667 123.989 56.8C125.456 57.7067 126.602 59.0267 127.429 60.76C128.282 62.4667 128.709 64.4933 128.709 66.84C128.709 69.16 128.282 71.1867 127.429 72.92C126.602 74.6533 125.456 75.9867 123.989 76.92C122.549 77.8267 120.909 78.28 119.069 78.28C117.362 78.28 115.896 77.8933 114.669 77.12C113.442 76.3467 112.549 75.2933 111.989 73.96V88.64H105.149V55.68H111.989V59.72C112.549 58.3867 113.442 57.3333 114.669 56.56C115.896 55.7867 117.362 55.4 119.069 55.4ZM116.869 61.4C115.429 61.4 114.242 61.8933 113.309 62.88C112.402 63.84 111.949 65.16 111.949 66.84C111.949 68.4933 112.402 69.8133 113.309 70.8C114.242 71.7867 115.429 72.28 116.869 72.28C118.336 72.28 119.509 71.8 120.389 70.84C121.296 69.88 121.749 68.5467 121.749 66.84C121.749 65.1333 121.296 63.8 120.389 62.84C119.509 61.88 118.336 61.4 116.869 61.4ZM153.458 66.24C153.458 66.8 153.392 67.4133 153.258 68.08H137.778C137.858 69.76 138.285 70.9733 139.058 71.72C139.832 72.44 140.818 72.8 142.018 72.8C143.032 72.8 143.872 72.5467 144.538 72.04C145.205 71.5333 145.645 70.88 145.858 70.08H153.098C152.805 71.6533 152.165 73.0667 151.178 74.32C150.192 75.5467 148.938 76.52 147.418 77.24C145.898 77.9333 144.205 78.28 142.338 78.28C140.152 78.28 138.205 77.8267 136.498 76.92C134.818 75.9867 133.498 74.6533 132.538 72.92C131.578 71.1867 131.098 69.16 131.098 66.84C131.098 64.4933 131.565 62.4667 132.498 60.76C133.458 59.0267 134.792 57.7067 136.498 56.8C138.205 55.8667 140.152 55.4 142.338 55.4C144.552 55.4 146.498 55.8533 148.178 56.76C149.858 57.6667 151.152 58.9467 152.058 60.6C152.992 62.2267 153.458 64.1067 153.458 66.24ZM146.538 65.2C146.565 63.7333 146.165 62.64 145.338 61.92C144.538 61.1733 143.538 60.8 142.338 60.8C141.085 60.8 140.045 61.1733 139.218 61.92C138.392 62.6667 137.925 63.76 137.818 65.2H146.538ZM163.864 59.88C164.717 58.52 165.811 57.44 167.144 56.64C168.504 55.84 169.971 55.44 171.544 55.44V62.76H169.584C167.771 62.76 166.357 63.1467 165.344 63.92C164.357 64.6933 163.864 66 163.864 67.84V78H157.024V55.68H163.864V59.88Z" fill="#07BFA5"/>
</svg>
