<svg width="327" height="255" viewBox="0 0 327 255" fill="none" xmlns="http://www.w3.org/2000/svg">
<path fill-rule="evenodd" clip-rule="evenodd" d="M236.271 101.992C249.761 60.7136 284.797 95.4548 284.865 66.751L285.955 67.0158C285.433 70.7986 284.23 78.1448 283.519 81.4661C264.726 83.3877 243.421 94.9328 236.279 101.984L236.271 101.992ZM312.192 46.0742C310.761 46.074 309.377 46.5807 308.284 47.5045C307.191 48.4283 306.461 49.7094 306.223 51.1205C301.245 46.9064 293.793 45.3933 289.579 53.5036V53.4128C289.072 54.3812 286.552 59.9722 286.076 61.1146C286 61.2886 285.932 61.4551 285.864 61.6291L286.621 61.4097C286.9 61.3265 289.442 54.8276 289.488 54.8276C293.762 56.1894 299.051 49.9629 298.93 50.8405C298.946 51.4113 299.02 51.9791 299.149 52.5352C299.906 56.318 302.107 58.7239 303.81 60.4261L303.908 60.2521C304.899 61.4021 305.618 62.2873 305.534 62.8698C304.021 67.0309 302.274 71.5476 303.393 79.8016C317.011 81.4963 339.867 83.7811 356.807 100.486C351.427 57.5739 327.982 86.1492 315.385 78.4398C305.444 72.3873 311.542 67.0309 311.133 59.6091C311.1 59.0822 311.014 58.56 310.876 58.0506C311.706 58.2297 312.564 58.2321 313.396 58.0577C314.227 57.8833 315.012 57.5359 315.7 57.0382C316.388 56.5405 316.963 55.9035 317.389 55.1688C317.815 54.434 318.081 53.6179 318.171 52.7734C318.261 51.9289 318.172 51.075 317.91 50.2672C317.648 49.4594 317.219 48.7158 316.651 48.0847C316.082 47.4536 315.388 46.9491 314.612 46.604C313.836 46.2589 312.996 46.081 312.147 46.0818L312.192 46.0742Z" fill="#01040D"/>
<path fill-rule="evenodd" clip-rule="evenodd" d="M303.379 79.5825C304.408 78.198 303.454 74.6119 303.174 71.9412C302.993 70.1936 303.984 67.5986 304.756 65.5029C305.361 63.8839 306.942 67.47 307.502 60.7215C307.714 58.187 303.923 57.9373 303.908 60.4794C301.782 58.3534 298.779 55.07 298.953 49.4639C294.338 56.1292 288.671 54.4723 289.647 54.6993C288.641 56.2124 286.976 61.3191 286.666 61.4099C278.526 63.7326 276.649 64.7993 285.948 67.0236C285.426 70.8064 284.223 78.1526 283.511 81.4739C290.093 80.9519 301.593 81.9959 303.379 79.5825Z" fill="white"/>
<path fill-rule="evenodd" clip-rule="evenodd" d="M301.624 79.5751C350.361 79.0077 379.156 114.377 381.91 157.599C383.642 184.684 368.564 208.039 345.3 207.872C341.123 207.872 345.784 212.139 342.069 214.182C317.942 227.467 285.932 220.507 262.237 223.465C241.757 226.015 219.151 218.926 219.87 212.117C220.354 207.524 224.984 193.354 225.082 185.751C168.628 191.841 154.155 125.831 158.679 94.0027C166.668 80.5208 198.777 86.0512 200.623 91.7708C205.389 131.694 215.3 122.669 226.527 109.573C244.291 88.8429 271.739 79.9231 301.624 79.5751Z" fill="#07BFA5"/>
<path fill-rule="evenodd" clip-rule="evenodd" d="M283.602 145.426C280.894 144.45 272.352 152.076 280.447 156.6C277.361 156.85 270.983 162.721 289.231 170.771C295.745 173.449 303.787 177.33 309.832 182.77C312.177 179.062 320.878 165.913 322.875 147.544C315.037 139.502 305.8 133.926 300.088 133.003C296.91 132.178 295.246 135.046 295.284 137.096C283.428 133.533 279.305 141.734 283.602 145.426Z" fill="white"/>
<path d="M298.18 59.9613C298.572 59.3538 298.477 58.5952 297.968 58.2668C297.458 57.9384 296.728 58.1647 296.336 58.7721C295.945 59.3796 296.04 60.1383 296.549 60.4667C297.058 60.795 297.788 60.5688 298.18 59.9613Z" fill="#01040D"/>
<path d="M290.881 57.49C291.158 57.0617 291.091 56.5271 290.733 56.2961C290.375 56.0651 289.861 56.2251 289.584 56.6535C289.308 57.0819 289.374 57.6165 289.732 57.8475C290.091 58.0785 290.605 57.9184 290.881 57.49Z" fill="#01040D"/>
<path d="M291.167 100.736C291.593 100.736 291.939 100.322 291.939 99.8126C291.939 99.3029 291.593 98.8896 291.167 98.8896C290.741 98.8896 290.396 99.3029 290.396 99.8126C290.396 100.322 290.741 100.736 291.167 100.736Z" fill="#01040D"/>
<path d="M287.838 118.969C288.264 118.969 288.61 118.556 288.61 118.046C288.61 117.536 288.264 117.123 287.838 117.123C287.412 117.123 287.066 117.536 287.066 118.046C287.066 118.556 287.412 118.969 287.838 118.969Z" fill="#01040D"/>
<path fill-rule="evenodd" clip-rule="evenodd" d="M178.682 55.7963C173.386 38.1382 170.715 30.0733 166.01 31.6772C158.005 34.3478 162.741 46.9824 167.841 62.7945C158.966 51.6579 150.894 45.6887 147.035 49.5396C141.648 54.9187 146.975 57.8617 159.783 74.7178C159.526 81.5269 159.405 85.8771 165.972 90.1441C167.084 90.9006 166.464 92.8147 166.138 94.7591C171.926 94.7591 181.058 96.7413 193.707 88.7066C194.842 87.6172 213.378 62.0606 207.166 55.5845C205.653 53.973 198.088 52.7095 191.566 65.4651C194.736 42.5641 192.073 31.2157 187.405 30.7012C184.038 30.323 180.763 39.4622 178.682 55.7963Z" fill="white"/>
<path d="M234.456 95.387C244.843 73.5754 260.474 81.0124 276.922 78.8638C281.764 78.2283 284.752 73.409 285.834 66.7059M286.674 61.2284C287.302 57.3472 287.854 56.3713 289.102 53.5493C291.97 47.0807 299.808 45.84 306.813 50.6441C308.818 45.1364 315.536 45.5525 317.193 49.9935C319.387 55.8871 314.349 60.033 310.914 58.0584C313.88 64.6329 305.504 73.0988 315.052 78.6444C326.597 85.3475 351.851 59.7834 360.491 96.3554M292.703 58.8604C291.41 60.9031 270.718 64.3076 284.601 66.6529C287.453 67.1371 293.551 65.3138 295.949 63.3316M343.234 120.217C341.388 125.18 334.39 152.258 336.992 156.532M334.155 155.821C334.866 175.681 328.443 185.924 321.105 194.973M286.87 87.4886C286.87 99.5935 278.011 126.02 278.435 138.935C278.896 152.863 273.54 165.966 271.21 178.866C270.514 182.724 269.447 192.333 268.244 202.213M230.083 172.034C227.057 176.573 223.085 200.307 221.663 206.457M163.71 89.7053C162.704 90.0079 158.233 91.4983 158.414 95.6745C156.856 130.688 169.604 186.015 219.62 186.726C220.762 186.726 224.833 186.779 225.771 185.97M201.266 102.415C188.571 112.644 168.529 113.37 158.671 109.308M194.895 88.3662C180.385 97.6794 166.903 94.9634 163.158 94.464M190.931 65.0641C198.542 37.8885 184.47 7.60347 178.645 55.8568C177.827 62.6129 173.349 21.9932 163.317 33.4021C159.443 37.8129 165.586 56.4242 167.773 63.2181C168.091 64.179 154.473 44.0318 146.952 49.5395C139.432 55.0473 159.685 73.5376 159.723 75.0053C159.92 83.2216 159.519 86.0208 166.721 90.7871M193.057 89.0471C195.327 87.6247 212.38 60.9106 207.303 56.2502C199.314 48.9192 188.956 70.2995 188.26 70.2768C182.374 70.1255 171.798 79.3555 173.886 85.8619M300.057 161.904C278.639 148.482 266.11 161.268 289.08 170.695C295.669 173.396 303.855 177.33 309.961 182.876C312.109 184.827 318.593 192.37 321.574 194.791C333.497 204.483 345.587 207.585 347.72 207.585M322.61 147.718C320.583 166.935 311.512 180.023 309.575 183.148M306.367 153.642C277.338 135.069 272.67 154.043 280.349 156.434M312.011 145.388C306.117 136.65 275.008 131.43 283.209 144.737M295.609 136.309C296.917 128.744 309.431 133.873 315.847 141.704C317.942 144.261 321.014 145.721 323.185 147.431C333.777 155.791 345.315 165.119 353.319 167.434M277.459 82.465C276.677 84.8296 276.1 87.257 275.734 89.7204C276.922 88.6688 288.383 83.2291 288.429 83.3199C294.027 94.4867 295.76 95.788 303.204 82.7298C303.386 82.4864 303.508 82.204 303.56 81.9051M290.653 70.1028C289.458 74.7859 293.982 78.599 298.476 67.6667M290.154 69.2479C294.353 71.389 297.871 68.4913 300.806 63.952M166.577 90.651C166.388 91.521 166.403 93.8739 166.252 94.3732L166.577 90.651Z" stroke="#01040D" stroke-width="1.42" stroke-linecap="round" stroke-linejoin="round"/>
<path fill-rule="evenodd" clip-rule="evenodd" d="M78.5 31.2697C37.523 29.9644 0.885307 22.3278 0.0266113 25.9801C-1.02673 30.4911 29.8978 43.154 43.9003 58.0381L51.9766 51.5L58.4766 54.5L63.6388 57.1107L62.4137 43.6921L78.5 31.2697Z" fill="#FF914D"/>
<path d="M126.977 48.4444C121.332 45.937 96.1322 37.6133 81.8091 35.541" stroke="#01221D" stroke-width="1.42" stroke-linecap="round" stroke-linejoin="round"/>
<path d="M88.8613 52.8636C81.9918 50.7111 74.2521 47.5511 67.6687 45.8223" stroke="#01221D" stroke-width="1.42" stroke-linecap="round" stroke-linejoin="round"/>
<path d="M77.332 32.0143C65.8078 39.8473 54.6842 48.2541 44.0032 57.2028M63.5013 56.699L62.0702 43.5896L35.2159 36.4051L8.36156 29.2207L35.9314 42.9598L63.5013 56.699Z" stroke="#01221D" stroke-width="1.42" stroke-linecap="round" stroke-linejoin="round"/>
<path d="M55.5898 62.7783C52.7038 60.9752 49.6332 59.486 46.4304 58.3359" stroke="#01221D" stroke-width="1.42" stroke-linecap="round" stroke-linejoin="round"/>
</svg>
